<svg width="173" height="174" viewBox="0 0 173 174" fill="none" xmlns="http://www.w3.org/2000/svg">
	<path
		d="M75.9048 15.9093C75.9998 25.6847 70.1669 19.69 70.2466 25.1805C70.283 27.6899 73.3787 29.9281 75.054 33.1693C77.0444 37.02 77.6221 41.9591 76.9818 45.8644C76.5653 48.4044 75.7213 50.9614 74.5903 53.298C71.5179 59.6455 66.622 63.1241 58.8109 62.5048C51.388 61.9163 43.9107 61.9784 36.465 61.6109C33.7812 61.4785 25.8943 58.8348 25.6582 60.463C25.3082 62.8762 26.6817 64.5731 28.7952 65.2247C32.5043 66.3682 36.3249 67.488 40.1765 67.8379C47.5907 68.5114 55.0911 68.3556 62.4921 69.1116C66.409 69.5116 70.4338 70.6283 73.9809 72.2673C79.8312 74.9706 81.3582 79.7039 80.7703 87.0506C80.2042 94.1255 76.7387 98.9752 70.3614 102.238C68.9365 102.967 67.5806 103.837 66.264 104.736C64.0321 106.261 64.1932 108.042 66.6324 109.154C68.0524 109.801 69.5158 110.361 70.9417 110.997C77.5485 113.944 81.8905 122.349 80.2329 128.957C79.4041 132.261 75.1708 133.702 72.4083 131.647C68.1838 128.504 63.6167 126.057 58.1631 125.525C53.7057 125.09 49.9135 126.415 47.0265 129.709C46.4581 130.358 45.9556 131.638 46.2578 132.253C46.6107 132.97 47.8353 133.574 48.7601 133.699C50.5349 133.939 52.3666 133.864 54.1719 133.819C65.6288 133.528 72.9952 138.537 76.8848 148.877C81.4638 161.05 71.5998 170.612 61.4374 172.606C54.4053 173.986 48.4007 171.579 42.8931 167.689C37.721 164.036 33.4838 159.514 29.5286 154.338C33.3154 154.503 36.8228 154.478 40.2829 154.852C44.9612 155.357 49.6082 156.139 54.2563 156.873C55.149 157.014 56.0205 157.416 56.8402 157.813C59.1351 158.926 59.1596 160.254 57.1568 161.84C56.0025 162.238 54.4917 163.218 55.4538 164.223C56.4754 165.197 57.246 165.285 58.2215 165.549C59.0344 165.769 59.9821 165.689 60.8422 165.565C63.345 165.205 65.7332 164.486 66.7785 162.011C67.8347 159.51 66.5309 157.451 64.9799 155.554C60.8469 150.5 54.957 149.202 48.7149 148.743C39.9018 148.094 31.0784 147.563 22.274 146.823C20.2847 146.656 18.2826 146.008 16.4131 145.284C11.6442 143.436 9.89843 139.282 11.7123 134.715C14.6758 135.518 17.5819 136.579 20.59 137.063C27.1633 138.121 33.2316 136.816 38.3761 132.574C40.9378 130.462 42.3345 127.816 41.7687 124.462C41.4596 122.63 40.3329 122.064 38.7594 123.136C37.181 124.212 35.6806 125.412 34.2571 126.671C30.3121 130.162 25.723 131.122 20.5974 129.915C15.1374 128.63 10.2261 126.432 7.37932 121.472C4.26903 116.053 6.25117 108.632 12.0302 103.649C13.2184 102.624 14.5613 101.763 15.5154 101.06C17.7825 102.704 19.7357 104.228 21.8096 105.583C23.1029 106.429 24.4946 106.402 25.3771 104.92C26.268 103.423 26.0511 102.084 24.617 100.905C23.2933 99.8178 21.8561 98.7628 20.854 97.4296C18.1716 93.8611 18.8033 89.0992 22.1827 86.1205C22.55 85.7968 23.1317 85.5215 23.616 85.5184C29.31 85.4823 35.0071 85.4082 40.6973 85.5563C42.8396 85.612 45.0595 85.9583 47.0816 86.6226C52.0333 88.2494 54.8106 92.6345 54.0522 97.139C53.3567 101.27 49.2985 104.365 44.1919 104.635C43.2678 104.684 42.32 104.541 41.4183 104.686C39.2307 104.755 39.6505 106.969 40.0366 107.417C43.5969 111.544 49.2024 112.576 54.0683 110.09C65.5522 104.224 66.4336 89.2942 55.7119 82.3638C51.7368 79.7944 47.3069 78.3709 42.571 78.1425C36.7948 77.864 30.9908 78.0984 25.2168 77.7979C19.6274 77.5069 14.6273 75.5944 10.8632 71.4464C7.94552 68.2312 7.32555 64.5337 8.87328 60.5348C11.8473 52.8509 19.5858 48.8743 28.7945 50.5644C35.0134 51.7058 41.1145 53.4755 47.3573 54.4379C51.2738 55.0418 55.4084 55.0927 59.3507 54.6409C65.7037 53.9128 69.488 50.0759 70.8552 44.1357C72.2337 38.1469 70.6347 33.082 65.4494 29.2761C61.1747 26.1385 56.1699 24.7586 50.9197 24.0745C45.2046 23.3298 39.5521 23.5752 34.016 25.2332C30.8673 26.3706 30.5358 28.3457 30.7206 29.3287C30.8435 29.9823 32.4742 30.79 33.4497 30.8146C38.0724 30.931 42.7143 30.5825 47.3256 30.82C52.2243 31.0723 57.1549 31.5917 61.0084 35.1087C63.8136 37.669 64.9538 40.9167 63.8634 43.5448C62.6747 46.4097 59.5814 48.2514 55.6207 48.0396C52.7705 47.8871 49.9213 47.4099 47.1156 46.8696C41.1301 45.717 35.1951 44.3165 29.1941 43.2501C26.6317 42.7948 23.956 42.9211 21.2551 42.7791C18.539 36.024 16.937 31.9608 23.9951 25.6824C30.5225 19.876 38.2539 15.823 47.5311 16.0426C50.7211 16.1181 53.8687 17.4529 57.0558 18.1257C59.7346 18.6911 62.437 19.1627 65.1429 19.5963C65.6361 19.6754 67.9141 20.1377 67.3 19.1067C66.3271 17.6862 65.7033 16.284 64.6448 15.3143C59.8399 10.9124 53.9021 9.06925 47.3635 8.75175C46.4848 8.7091 45.6026 8.73466 44.7222 8.72156C44.6391 8.72033 44.5569 8.6682 44.2326 8.55639C46.6065 4.97577 49.544 2.09613 53.8846 1.08519C59.653 -0.258279 65.1577 0.808998 70.0896 3.89517C75.0626 7.007 75.8433 9.57477 75.9048 15.9093ZM10.4885 79.8743C9.15543 79.1324 8.32033 79.2234 7.22228 80.097C1.4635 84.6787 -0.228027 90.7867 0.0239524 97.5867C0.113089 99.9922 0.874688 102.21 3.04936 103.662C4.91157 102.148 6.55338 100.568 8.44686 99.3415C10.3755 98.0925 12.5518 97.192 14.7014 96.0974C13.806 91.408 15.2233 87.1326 17.8758 83.2211C15.3173 82.0871 12.7947 81.1578 10.4885 79.8743Z"
		fill="black" />
	<path
		d="M97.1285 16.3405C97.2841 10.5111 97.888 7.87813 100.138 5.60501C107.545 -1.87891 120.618 -1.0028 126.73 7.36941C126.985 7.71826 127.202 8.09333 127.528 8.59837C118.477 8.92314 110.191 10.4847 105.182 18.544C105.261 18.8556 105.34 19.1671 105.418 19.4787C107.168 19.4787 108.953 19.6887 110.659 19.4198C112.378 19.1487 114.073 18.5238 115.685 17.8426C122.158 15.1073 128.605 15.3815 134.955 18.0548C140.007 20.1815 144.818 22.7586 148.586 26.8196C151.968 30.4646 153.143 34.5701 151.285 39.3115C150.82 40.4987 150.484 41.7341 150.085 42.9583C139.769 42.225 130.369 46.368 120.486 47.6527C118.266 47.9413 115.94 48.0893 113.742 47.7728C108.868 47.0708 106.516 42.2137 108.868 37.9884C111.248 33.7115 115.28 31.7108 119.999 31.3661C125.855 30.9384 131.747 30.9691 137.625 30.8631C139.034 30.8376 140.49 31.0033 140.877 29.2609C141.254 27.5606 140.544 26.245 138.83 25.7048C128.122 22.3305 117.691 22.8194 107.924 28.5237C101.946 32.0148 99.8655 37.819 101.548 44.4841C103.158 50.8629 107.42 54.2994 114.556 54.9704C122.126 55.682 129.302 53.698 136.489 51.8698C141.21 50.669 145.916 49.633 150.824 50.6758C158.277 52.2595 163.993 59.8129 162.702 66.472C161.955 70.3231 159.373 72.8888 156.082 74.8144C152.089 77.1505 147.719 77.9907 143.064 77.9091C136.414 77.7924 129.72 77.3372 123.198 79.1988C119.109 80.3659 115.49 82.3642 112.59 85.4053C106.481 91.8095 108.03 102.778 115.801 108.747C120.868 112.639 126.711 112.341 131.209 107.842C131.759 107.292 131.999 106.217 131.93 105.422C131.904 105.115 130.635 104.788 129.901 104.688C128.382 104.479 126.803 104.586 125.318 104.26C120.945 103.301 118.275 100.371 117.79 96.2443C117.381 92.7608 119.81 88.9031 123.567 87.0706C127.209 85.2946 131.126 85.5011 135.027 85.5306C139.058 85.5611 143.091 85.4816 147.121 85.5546C147.884 85.5685 148.83 85.8769 149.363 86.3804C153.033 89.8451 152.888 95.4228 149.087 99.0605C148.347 99.7684 147.463 100.331 146.656 100.974C145.264 102.082 145.153 103.475 145.966 104.894C146.798 106.349 148.161 106.455 149.455 105.586C151.484 104.224 153.407 102.711 155.535 101.144C160.592 103.255 165.125 110.24 164.99 116.122C164.857 121.891 160.893 126.467 153.798 129.037C147.29 131.395 141.359 130.892 136.274 125.798C135.239 124.762 134.012 123.882 132.775 123.073C131.394 122.17 130.372 122.511 130.004 124.198C129.168 128.035 130.951 130.881 133.871 133.067C141.073 138.462 148.928 138.397 157.049 135.364C157.763 135.097 158.456 134.779 159.151 134.489C161.195 138.142 159.792 143.263 155.706 144.728C151.559 146.215 147.088 147.115 142.683 147.581C134.807 148.413 126.86 148.587 118.969 149.31C114.619 149.708 110.766 151.536 107.839 154.847C105.929 157.008 104.199 159.327 105.622 162.379C106.701 164.693 110.42 166.113 113.844 165.541C114.802 165.381 115.664 164.674 116.569 164.217C116.011 163.412 115.604 162.428 114.865 161.836C112.867 160.235 112.834 158.564 115.308 157.809C119.084 156.656 122.992 155.742 126.912 155.253C131.782 154.645 136.721 154.574 142.315 154.229C139.458 157.4 137.122 160.257 134.504 162.842C129.733 167.553 124.435 171.479 117.508 172.761C105.376 175.008 93.0382 164.226 94.5773 152.67C96.0915 141.3 105.473 133.472 117.173 133.787C119.121 133.839 121.093 133.936 123.013 133.701C123.947 133.587 125.144 132.941 125.556 132.189C125.862 131.631 125.331 130.315 124.768 129.677C121.023 125.439 116.102 124.375 110.949 126.133C107.042 127.466 103.392 129.654 99.8457 131.803C97.255 133.374 93.2363 132.255 92.3832 129.313C90.5818 123.1 94.459 114.573 100.57 111.43C102.17 110.607 103.869 109.969 105.508 109.215C107.935 108.099 108.129 106.209 105.911 104.699C104.166 103.51 102.397 102.32 100.515 101.362C90.9706 96.505 90.6737 85.0112 92.6474 78.2074C93.6643 74.7019 96.6809 72.8362 99.8749 71.424C106.109 68.6675 112.827 68.809 119.475 68.4001C126.058 67.9953 132.633 67.3514 139.176 66.5452C140.874 66.336 142.564 65.2987 144.021 64.3105C144.843 63.753 145.521 62.559 145.639 61.5798C145.743 60.7235 145.21 59.3881 144.514 58.9762C143.976 58.657 142.757 59.4502 141.833 59.7255C139.668 60.3707 137.527 61.4163 135.325 61.562C128.409 62.0194 121.467 62.078 114.539 62.3984C103.878 62.8917 97.7938 58.223 95.77 47.3536C95.1252 43.8906 95.2129 40.2351 95.4465 36.6979C95.6528 33.5742 97.3742 31.0373 100.237 29.3709C101.091 28.8736 101.982 28.3704 102.675 27.6931C103.296 27.0849 104.736 25.0397 102.008 23.8268C102.008 23.8268 96.9729 22.1698 97.1285 16.3405ZM169.649 103.401C175.635 99.0215 171.759 82.753 163.753 79.2441C160.73 80.5895 157.844 81.8738 154.811 83.2236C157.58 87.1401 158.75 91.5182 158.041 95.6382C162.116 98.3633 165.838 100.853 169.649 103.401Z"
		fill="black" />
</svg>
