<svg xmlns="http://www.w3.org/2000/svg" width="595" height="841">
    <path
        d="M79.077 85.235c73.08 22.117 91.775 40.337 117.469 106.37-4.984-80.517-37.208-114.082-117.469-106.37 18.827-67.89 0 0 0 0M-22.208 211.874C25.235 226.484 80.324 238.16 100.68 328.8c8.404-113.077-45.134-118.838-122.888-116.925 90.649-302.18 0 0 0 0"
        style="fill:#8a0819;fill-opacity:1;stroke:none" transform="translate(22)" />
    <path
        d="M9.848 139.77c71.289 14.732 116.732 34.088 143.292 126.084 6.093-118.68-59.046-130.596-143.292-126.084 78.39-131.188 0 0 0 0"
        style="fill:#8a0819;fill-opacity:1;stroke:none" transform="translate(22)" />
    <path
        d="M103.33.379c389.022 253.662-86.412 258.144 17 552.638l61.216 17.827C12.903 342.22 556.898 224.698 103.33.379"
        style="fill:#8a0819;fill-opacity:1;stroke:none" transform="translate(22)" />
</svg>