<svg xmlns="http://www.w3.org/2000/svg" width="518" height="377" fill="none" viewBox="0 0 518 377"><path fill="#F2F2F2" d="M301.563 66.378c9.702 0 17.568-7.866 17.568-17.568s-7.866-17.569-17.568-17.569-17.569 7.866-17.569 17.569 7.866 17.568 17.569 17.568m136.283 260.734c26.114-19.89 38.586-53.312 30.778-85.196a95 95 0 0 0-.614-2.371c-5.177-18.926-17.984-36.913-36.65-42.96-15.672-5.077-32.779-1.173-49.13-3.192-32.097-3.964-56.981-29.934-74.49-57.125s-30.965-57.627-54.231-80.091c-38.35-37.028-100.908-45-148.456-20.897-47.548 24.102-77.836 77.575-76.544 130.867 1.291 53.293 32.929 104.244 78.874 131.277 16.878 9.931 36.4 16.966 55.828 14.504 16.857-2.136 32.174-11.194 48.952-13.883 26.379-4.228 52.59 7.699 75.406 21.597 22.815 13.899 44.854 30.372 70.781 36.816 25.175 6.256 56.364-11.727 79.496-29.346"/><path fill="#3F3D56" d="M400.329 36.4c-.573-.383-1.152-.744-1.724-1.113a250.2 250.2 0 0 0-52.842-25.615l-4.303 59.362h-27.28V1.007A217 217 0 0 0 309.002 0v69.035h-32.418a67.29 67.29 0 0 1-67.291-67.291c-1.737.375-3.461.776-5.185 1.204v66.087h-26.405l-4.099-56.606a250.6 250.6 0 0 0-53.914 28.642c-.29.197-.579.401-.862.598a225 225 0 0 0-4.316 3.113v226.467h77.818l-1.375-19.048-7.567-104.585h152.38l-7.566 104.585-1.376 19.048h76.957V38.689a197 197 0 0 0-3.454-2.29m-196.221 93.944h-21.97l-4.059-56.125h26.029zm104.894 0h-36.899v-1.112a4.08 4.08 0 0 0-1.193-2.877 4.07 4.07 0 0 0-2.88-1.189h-16.041a4.07 4.07 0 0 0-4.067 4.066v1.112h-38.629V74.219h99.709zm5.178 0V74.219h26.905l-4.06 56.125zM0 285.752A190 190 0 0 0 18.502 304.8l480.702.658a190 190 0 0 0 18.502-19.048z"/><path fill="#3F3D56" d="M325.979 224.758v56.391a2.71 2.71 0 0 0 2.71 2.71h83.565a2.71 2.71 0 0 0 2.71-2.71v-56.391a2.713 2.713 0 0 0-2.71-2.707h-83.565a2.713 2.713 0 0 0-2.71 2.707"/><path fill="#6C63FF" d="M327.939 225.459v54.994a1.45 1.45 0 0 0 1.449 1.448h82.171a1.45 1.45 0 0 0 1.449-1.448v-54.994a1.454 1.454 0 0 0-1.449-1.451h-82.171a1.45 1.45 0 0 0-1.449 1.451"/><path fill="#2F2E41" d="M324.232 292.146a1.62 1.62 0 0 0 1.278.612h89.479a1.64 1.64 0 0 0 1.599-1.259c.057-.238.061-.485.011-.725l-1.389-6.598a1.655 1.655 0 0 0-1.61-1.306h-86.706a1.65 1.65 0 0 0-1.61 1.306l-1.389 6.598a1.64 1.64 0 0 0 .337 1.372"/><path fill="#3F3D56" d="M410.53 285.712h2.114a.32.32 0 0 0 .321-.321v-1.011a.32.32 0 0 0-.321-.322h-2.114a.32.32 0 0 0-.321.322v1.011c0 .177.144.321.321.321m-5.512 0h2.114a.32.32 0 0 0 .321-.321v-1.011a.32.32 0 0 0-.321-.322h-2.114a.32.32 0 0 0-.321.322v1.011c0 .177.144.321.321.321m-5.511 0h2.113a.32.32 0 0 0 .321-.321v-1.011a.32.32 0 0 0-.321-.322h-2.113a.32.32 0 0 0-.321.322v1.011a.32.32 0 0 0 .321.321m-5.512 0h2.113a.32.32 0 0 0 .322-.321v-1.011a.32.32 0 0 0-.322-.322h-2.113a.32.32 0 0 0-.321.322v1.011c0 .177.144.321.321.321m-5.514 0h2.114a.32.32 0 0 0 .321-.321v-1.011a.32.32 0 0 0-.321-.322h-2.114a.32.32 0 0 0-.321.322v1.011c0 .177.144.321.321.321m-5.511 0h2.113a.32.32 0 0 0 .321-.321v-1.011a.32.32 0 0 0-.321-.322h-2.113a.32.32 0 0 0-.322.322v1.011c0 .177.144.321.322.321m-5.512 0h2.113a.32.32 0 0 0 .322-.321v-1.011a.32.32 0 0 0-.322-.322h-2.113a.32.32 0 0 0-.321.322v1.011a.32.32 0 0 0 .321.321m-5.51 0h2.114a.32.32 0 0 0 .321-.321v-1.011a.32.32 0 0 0-.321-.322h-2.114a.32.32 0 0 0-.321.322v1.011c0 .177.144.321.321.321m-5.512 0h2.114a.32.32 0 0 0 .321-.321v-1.011a.32.32 0 0 0-.321-.322h-2.114a.32.32 0 0 0-.321.322v1.011c0 .177.144.321.321.321m-5.513 0h2.113a.32.32 0 0 0 .321-.321v-1.011a.32.32 0 0 0-.321-.322h-2.113a.32.32 0 0 0-.322.322v1.011c0 .177.144.321.322.321m-5.512 0h2.114a.32.32 0 0 0 .321-.321v-1.011a.32.32 0 0 0-.321-.322h-2.114a.32.32 0 0 0-.321.322v1.011c0 .177.144.321.321.321m-5.512 0h2.114a.32.32 0 0 0 .321-.321v-1.011a.32.32 0 0 0-.321-.322h-2.114a.32.32 0 0 0-.321.322v1.011c0 .177.144.321.321.321m-5.511 0h2.113a.32.32 0 0 0 .321-.321v-1.011a.32.32 0 0 0-.321-.322h-2.113a.32.32 0 0 0-.322.322v1.011c0 .177.144.321.322.321m-5.51 0h2.113a.32.32 0 0 0 .321-.321v-1.011a.32.32 0 0 0-.321-.322h-2.113a.32.32 0 0 0-.321.322v1.011a.32.32 0 0 0 .321.321m-5.514 0h2.114a.32.32 0 0 0 .321-.321v-1.011a.32.32 0 0 0-.321-.322h-2.114a.32.32 0 0 0-.321.322v1.011c0 .177.144.321.321.321m-5.512 0h2.114a.32.32 0 0 0 .321-.321v-1.011a.32.32 0 0 0-.321-.322h-2.114a.32.32 0 0 0-.321.322v1.011c0 .177.144.321.321.321m82.745 2.756h2.113a.32.32 0 0 0 .321-.321v-1.012a.32.32 0 0 0-.321-.321h-2.113a.32.32 0 0 0-.322.321v1.012c0 .177.144.321.322.321m-5.514 0h2.113a.32.32 0 0 0 .322-.321v-1.012a.32.32 0 0 0-.322-.321h-2.113a.32.32 0 0 0-.321.321v1.012a.32.32 0 0 0 .321.321m-5.512 0h2.114a.32.32 0 0 0 .321-.321v-1.012a.32.32 0 0 0-.321-.321h-2.114a.32.32 0 0 0-.321.321v1.012c0 .177.144.321.321.321m-5.512 0h2.114a.32.32 0 0 0 .321-.321v-1.012a.32.32 0 0 0-.321-.321h-2.114a.32.32 0 0 0-.321.321v1.012c0 .177.144.321.321.321m-5.511 0h2.113a.32.32 0 0 0 .321-.321v-1.012a.32.32 0 0 0-.321-.321h-2.113a.32.32 0 0 0-.321.321v1.012a.32.32 0 0 0 .321.321m-5.512 0h2.114a.32.32 0 0 0 .321-.321v-1.012a.32.32 0 0 0-.321-.321h-2.114a.32.32 0 0 0-.321.321v1.012c0 .177.144.321.321.321m-5.512 0h2.114a.32.32 0 0 0 .321-.321v-1.012a.32.32 0 0 0-.321-.321h-2.114a.32.32 0 0 0-.321.321v1.012c0 .177.144.321.321.321m-5.511 0h2.113a.32.32 0 0 0 .321-.321v-1.012a.32.32 0 0 0-.321-.321h-2.113a.32.32 0 0 0-.322.321v1.012c0 .177.144.321.322.321m-5.514 0h2.113a.32.32 0 0 0 .322-.321v-1.012a.32.32 0 0 0-.322-.321h-2.113a.32.32 0 0 0-.321.321v1.012c0 .177.144.321.321.321m-5.51 0h2.114a.32.32 0 0 0 .321-.321v-1.012a.32.32 0 0 0-.321-.321h-2.114a.32.32 0 0 0-.321.321v1.012c0 .177.144.321.321.321m-5.512 0h2.114a.32.32 0 0 0 .321-.321v-1.012a.32.32 0 0 0-.321-.321h-2.114a.32.32 0 0 0-.321.321v1.012c0 .177.144.321.321.321m-5.511 0h2.113a.32.32 0 0 0 .321-.321v-1.012a.32.32 0 0 0-.321-.321h-2.113a.32.32 0 0 0-.322.321v1.012c0 .177.144.321.322.321m-5.512 0h2.113a.32.32 0 0 0 .322-.321v-1.012a.32.32 0 0 0-.322-.321h-2.113a.32.32 0 0 0-.321.321v1.012c0 .177.144.321.321.321m-5.514 0h2.114a.32.32 0 0 0 .321-.321v-1.012a.32.32 0 0 0-.321-.321h-2.114a.32.32 0 0 0-.321.321v1.012c0 .177.144.321.321.321m-5.511 0h2.113a.32.32 0 0 0 .321-.321v-1.012a.32.32 0 0 0-.321-.321h-2.113a.32.32 0 0 0-.322.321v1.012c0 .177.144.321.322.321m-5.512 0h2.113a.32.32 0 0 0 .322-.321v-1.012a.32.32 0 0 0-.322-.321h-2.113a.32.32 0 0 0-.321.321v1.012a.32.32 0 0 0 .321.321m36.929 3.306h21.405a.32.32 0 0 0 .321-.321v-1.011a.32.32 0 0 0-.321-.321h-21.405a.32.32 0 0 0-.321.321v1.011a.32.32 0 0 0 .321.321"/><path fill="#fff" d="M342.17 236.039h-1.871a1.027 1.027 0 1 0 0 2.054h1.871a1.027 1.027 0 0 0 0-2.054m21.398 0h-1.871a1.027 1.027 0 0 0 0 2.054h1.871a1.027 1.027 0 0 0 0-2.054m6.063 0h-1.871a1.027 1.027 0 1 0 0 2.054h1.871a1.027 1.027 0 0 0 0-2.054m-11.883-.171h-11.629a1.027 1.027 0 0 0 0 2.054h11.629a1.027 1.027 0 1 0 0-2.054m28.531 0H374.65a1.027 1.027 0 0 0 0 2.054h11.629a1.027 1.027 0 1 0 0-2.054m-38.404 4.808h-1.871a1.027 1.027 0 1 0 0 2.054h1.871a1.027 1.027 0 0 0 0-2.054m21.4 0h-1.871a1.027 1.027 0 0 0 0 2.054h1.871a1.027 1.027 0 0 0 0-2.054m6.063 0h-1.871a1.027 1.027 0 1 0 0 2.054h1.871a1.027 1.027 0 0 0 0-2.054m-11.885-.171h-11.629a1.027 1.027 0 0 0 0 2.054h11.629a1.027 1.027 0 0 0 0-2.054m28.533 0h-11.629a1.027 1.027 0 0 0 0 2.054h11.629a1.027 1.027 0 0 0 0-2.054m-38.404 4.807h-1.871a1.027 1.027 0 1 0 0 2.055h1.871a1.027 1.027 0 0 0 0-2.055m21.4 0h-1.871a1.027 1.027 0 0 0 0 2.055h1.871a1.027 1.027 0 0 0 0-2.055m6.063 0h-1.871a1.028 1.028 0 1 0 0 2.055h1.871a1.027 1.027 0 0 0 0-2.055m-11.885-.171h-11.629a1.027 1.027 0 0 0 0 2.054h11.629a1.027 1.027 0 0 0 0-2.054m28.533 0h-11.629a1.027 1.027 0 0 0 0 2.054h11.629a1.027 1.027 0 1 0 0-2.054m-38.404 4.808h-1.871a1.027 1.027 0 0 0 0 2.054h1.871a1.027 1.027 0 1 0 0-2.054m21.4 0h-1.871a1.027 1.027 0 0 0 0 2.054h1.871a1.026 1.026 0 1 0 0-2.054m6.063 0h-1.871a1.027 1.027 0 1 0 0 2.054h1.871a1.027 1.027 0 1 0 0-2.054m-11.885-.172h-11.629a1.027 1.027 0 0 0 0 2.055h11.629a1.027 1.027 0 0 0 0-2.055m-11.299 18.609h-1.871a1.027 1.027 0 0 0 0 2.054h1.871a1.027 1.027 0 0 0 0-2.054m6.063 0h-1.871a1.027 1.027 0 1 0 0 2.054h1.871a1.027 1.027 0 0 0 0-2.054m16.648.171H374.65a1.027 1.027 0 0 0 0 2.054h11.629a1.027 1.027 0 0 0 0-2.054m-44.109-.171h-1.871a1.027 1.027 0 1 0 0 2.054h1.871a1.027 1.027 0 0 0 0-2.054m15.578.171h-11.629a1.027 1.027 0 0 0 0 2.054h11.629a1.027 1.027 0 0 0 0-2.054m-9.873-4.808h-1.871a1.027 1.027 0 1 0 0 2.054h1.871a1.027 1.027 0 0 0 0-2.054m21.4 0h-1.871a1.027 1.027 0 0 0 0 2.054h1.871a1.027 1.027 0 0 0 0-2.054m6.063 0h-1.871a1.027 1.027 0 1 0 0 2.054h1.871a1.027 1.027 0 0 0 0-2.054m-11.885.171h-11.629a1.027 1.027 0 0 0 0 2.054h11.629a1.027 1.027 0 0 0 0-2.054m-9.871-4.808h-1.871a1.027 1.027 0 1 0 0 2.055h1.871a1.027 1.027 0 0 0 0-2.055m21.4 0h-1.871a1.027 1.027 0 0 0 0 2.055h1.871a1.027 1.027 0 0 0 0-2.055m6.063 0h-1.871a1.027 1.027 0 1 0 0 2.055h1.871a1.027 1.027 0 0 0 0-2.055m-11.885.172h-11.629a1.027 1.027 0 0 0 0 2.054h11.629a1.027 1.027 0 1 0 0-2.054m-9.871-4.808h-1.871a1.027 1.027 0 1 0 0 2.054h1.871a1.027 1.027 0 0 0 0-2.054m21.4 0h-1.871a1.027 1.027 0 1 0 0 2.054h1.871a1.027 1.027 0 1 0 0-2.054m6.063 0h-1.871a1.026 1.026 0 1 0 0 2.054h1.871a1.027 1.027 0 0 0 0-2.054m-11.885.171h-11.629a1.027 1.027 0 0 0 0 2.055h11.629a1.027 1.027 0 0 0 0-2.055"/><path fill="#FFB6B6" d="m332.221 322.724-8.783-13.885 27.57-21.978 11.38-12.607a12.61 12.61 0 0 1 17.763-.951 12.606 12.606 0 0 1-4.046 21.229l-17.995 6.629z"/><path fill="#2F2E41" d="M126.127 222.053v67.482h47.275v-67.482a2.27 2.27 0 0 0-1.599-2.171 2.1 2.1 0 0 0-.677-.106H128.41a2.28 2.28 0 0 0-2.283 2.277m18.45 23.187a5.044 5.044 0 0 1 5.046-5 5.05 5.05 0 0 1 5.047 5v7.83a5.048 5.048 0 0 1-10.093 0z"/><path fill="#3F3D56" d="M125.982 287.377v6.507a1.28 1.28 0 0 0 1.27 1.277h45.025a1.28 1.28 0 0 0 1.27-1.277v-6.507zM51.756 120.383v123.212a5.926 5.926 0 0 0 5.922 5.922h182.587a5.93 5.93 0 0 0 5.922-5.922V120.383a5.93 5.93 0 0 0-5.922-5.915H57.678a5.93 5.93 0 0 0-5.922 5.915"/><path fill="#fff" d="M56.04 121.917v120.159a3.17 3.17 0 0 0 3.164 3.164h179.541a3.17 3.17 0 0 0 3.165-3.164V121.917a3.176 3.176 0 0 0-3.165-3.172H59.204a3.175 3.175 0 0 0-3.165 3.172"/><path fill="#2F2E41" d="M89.36 294.72a1.94 1.94 0 0 0 1.526.73h106.816a1.96 1.96 0 0 0 1.524-.727 1.97 1.97 0 0 0 .397-1.641l-1.658-7.876a1.98 1.98 0 0 0-1.921-1.56H92.538c-.239 0-.475.045-.697.132a1.97 1.97 0 0 0-1.224 1.428l-1.659 7.876a1.96 1.96 0 0 0 .402 1.638"/><path fill="#3F3D56" d="M232.917 135.297H64.921a.668.668 0 0 1 0-1.336h167.996a.67.67 0 0 1 .463 1.135.67.67 0 0 1-.463.201m-156.56-4.747c2.162 0 3.915-1.792 3.915-4.003 0-2.21-1.753-4.002-3.915-4.002s-3.916 1.792-3.916 4.002 1.753 4.003 3.916 4.003m13.527 0c2.162 0 3.915-1.792 3.915-4.003 0-2.21-1.753-4.002-3.915-4.002s-3.915 1.792-3.915 4.002 1.753 4.003 3.915 4.003m13.523 0c2.163 0 3.916-1.792 3.916-4.003 0-2.21-1.753-4.002-3.916-4.002-2.162 0-3.915 1.792-3.915 4.002s1.753 4.003 3.915 4.003m121.367-7.015h-9.607a.73.73 0 0 0-.71.727.724.724 0 0 0 .71.727h9.607a.73.73 0 0 0 .507-1.237.73.73 0 0 0-.507-.217m.001 2.731h-9.607a.726.726 0 0 0 0 1.454h9.607a.73.73 0 0 0 .718-.727.724.724 0 0 0-.718-.727m-.001 2.73h-9.607a.73.73 0 0 0-.71.727.724.724 0 0 0 .71.727h9.607a.73.73 0 0 0 .507-1.237.73.73 0 0 0-.507-.217"/><path fill="#2F2E41" d="M456.367 290.232a4.22 4.22 0 0 0 4.069 2.85l17.431-.449a4.165 4.165 0 0 0 3.935-3.064l2.467-26.376a6.45 6.45 0 0 0 2.788.573 6.35 6.35 0 0 0 4.447-1.974 6.36 6.36 0 0 0 1.748-4.541 6.36 6.36 0 0 0-6.514-6.195 5.4 5.4 0 0 0-1.142.119 4.3 4.3 0 0 0-3.207-1.384l-26.813.693a4 4 0 0 0-.662.082 4.18 4.18 0 0 0-2.839 1.989 4.2 4.2 0 0 0-.367 3.449zm28.407-28.83 1.756-6.285a4.3 4.3 0 0 0 .013-2.221c.085 0 .16-.04.245-.041a4.546 4.546 0 0 1 .213 9.092 4.3 4.3 0 0 1-2.227-.545"/><path fill="#3F3D56" d="M454.914 250.566c.571 3.267 6.994 5.563 14.716 5.164 7.101-.327 12.908-2.821 13.972-5.776a4 4 0 0 0-1.214-.162l-26.813.692a4 4 0 0 0-.661.082"/><path fill="#6C63FF" d="M471.044 275.738a.3.3 0 0 0 .1-.043l3.785-2.478a.33.33 0 0 0 .109-.431.3.3 0 0 0-.109-.119l-3.934-2.577a.326.326 0 0 0-.457.094.33.33 0 0 0 .096.456l3.514 2.301-3.365 2.203a.33.33 0 0 0 .261.594m-5.977.276a.329.329 0 0 0 .083-.604l-3.489-2.001 3.372-2.505a.33.33 0 0 0 .13-.216.33.33 0 0 0-.062-.244.325.325 0 0 0-.344-.123.4.4 0 0 0-.116.055l-3.776 2.805a.335.335 0 0 0-.083.437.3.3 0 0 0 .116.112l3.925 2.25a.33.33 0 0 0 .244.034m5.603 1.896a.328.328 0 0 0 .201-.49l-5.367-8.822a.32.32 0 0 0-.203-.148.33.33 0 0 0-.359.49l5.366 8.823q.057.091.157.133a.32.32 0 0 0 .205.014M168.994 171.617h-29.077a2.15 2.15 0 0 0-2.147 2.148v2.841c0 1.186.961 2.147 2.147 2.147h29.077a2.147 2.147 0 0 0 2.147-2.147v-2.841a2.15 2.15 0 0 0-2.147-2.148"/><path fill="#E6E6E6" d="M185.941 185.89h-62.973a2.15 2.15 0 0 0-2.148 2.147v2.841c0 1.186.962 2.148 2.148 2.148h62.973a2.15 2.15 0 0 0 2.148-2.148v-2.841a2.15 2.15 0 0 0-2.148-2.147m0 14.272h-62.973a2.15 2.15 0 0 0-2.148 2.148v2.841c0 1.186.962 2.147 2.148 2.147h62.973a2.15 2.15 0 0 0 2.148-2.147v-2.841a2.15 2.15 0 0 0-2.148-2.148"/><path fill="#3F3D56" d="m191.279 247.954.143.451.007.015 4.294 13.053 4.939 15.041 9.292 28.268.09 4.391v.015l.691 35.323-1.914 4.789 2.154 7.851s-.991-11.868-6.305-5.053c-3.01 3.873-6.53 7.837-9.42 11.552a177 177 0 0 0 12.835 4.624c.938.3 1.884.585 2.83.87l.608.18a175.6 175.6 0 0 0 44.315 7.124c.78.022 1.546.037 2.289.052q.392.014.773.015c.841.008 1.674.015 2.515.015q2.544 0 5.066-.075a175.6 175.6 0 0 0 36.907-4.991c-.083-4.992-.308-10.824-.631-17.054-.15-3.055-3.52-6.365-3.722-9.562-.143-2.402 2.882-4.662 2.724-7.101-1.021-15.019-2.297-9.254-3.242-19.89a436 436 0 0 1-.271-2.995c-.608-6.83-1.028-11.101-1.028-11.101l4.038-25.453 6.343-39.961-.488-.803-.548-.271-33.454-16.558-1.816-4.653a7.225 7.225 0 0 0-6.673-4.571l-22.038-.091a7.2 7.2 0 0 0-5.862 2.98l-5.967 8.264z"/><path fill="#3F3D56" d="m215.036 298.492-4.991 10.681-3.408 7.296-5.862 30.691-2.935 3.115-2.514-11.027-26.318 5.844c-.863-4.797-.231.162-.764-5.1q.227-.225.466-.45c.42-.39.773-.758.765-1.111-.3-18.149.601-49.036 8.122-67.749a39.5 39.5 0 0 1 4.623-8.624q.223-.304.436-.608c3.467-4.856 5.659-9.638 8.766-13.038v-.007a.3.3 0 0 0 .053-.053.1.1 0 0 0 .03-.022l21.347-11.319.916 25.73.653 18.495zm76.974 3.034 6.235 13.34 2.176 4.646 5.86 30.689 2.926 3.108 2.52-11.025 1.184-.243 21.357-4.423 6.225 19.77a11.834 11.834 0 0 0-2.146-14.808c-.425-.385-.779-.76-.769-1.114.354-21.346-.952-60.325-12.744-76.368-3.745-5.091-5.992-10.162-9.261-13.705-.01-.01-.01-.02-.02-.02l-7.956-13.027-.486-.799-.546-.274z"/><path fill="#FFB6B6" d="M254.238 205.128c16.192 0 29.318-13.126 29.318-29.318s-13.126-29.318-29.318-29.318-29.318 13.126-29.318 29.318 13.126 29.318 29.318 29.318"/><path fill="#2F2E41" d="M293.864 155.332a2.48 2.48 0 0 0-1.77-.783l.441-1.224c.144-.385.183-.802.112-1.208a2.32 2.32 0 0 0-2.718-1.884l-1.605.309.151-1.073a2.325 2.325 0 0 0-3.112-2.513 2.49 2.49 0 0 1-2.132-.151 2.52 2.52 0 0 1-1.263-1.718l-.559-2.697-.06-.145c-2.724-4.54-7.961-7.843-14.37-9.054-5.704-1.086-11.554-.533-17.193-.013-2.237.211-4.763.447-6.869 1.737-1.789 1.105-3.303 3.316-2.994 5.547-5.559-1.704-11.521 1.697-14.475 5.987-3.5 5.106-4.073 11.502-4.165 16.502-.25 11.831 2.191 21.509 7.238 28.773.368.527.46 1.626 1.191 1.994l-.152-.243c.816.408 1.645 1.066 1.336 1.77-.888 2.026 5.014 6.507 9.172 7.987 7.587 2.705 17.673 2.474 24.766 1.501l.25-1.678c2.56-.349 4.363-1.014 4.869-2.053a59 59 0 0 0 2.323-2.079l.007-.007c.013-.013.039-.033.052-.046 3.204-3.073 3.948-4.823 4.284-7.488.322-2.612-.25-5.263-.836-7.652 12.33 1.908-4.856-13.133 6.632-16.041q.198-.062.402-.099c.335-.079.671-.158.993-.25a17.4 17.4 0 0 0 4.422-1.888c3.211-1.955 4.27-4.547 5.928-7.468a2.25 2.25 0 0 0-.296-2.652m64.067 148.281c-.007 1.151-.02 2.763-.073 4.757l-.019.849a567 567 0 0 1-.31 10.152 24 24 0 0 1-.026.704c-.184 4.764-.474 10.311-.974 19.095-.927 16.225-2.546 2.23-4.171 7.922-.079.283-.165.618-.244 1.013a18.4 18.4 0 0 1-1.237 4.165c-.862.513-1.75 1.007-2.625 1.5a182 182 0 0 1-11.903 6.073c-.23.105-.454.211-.677.309a178 178 0 0 1-22.865 8.725c-1.526.461-3.046.908-4.586 1.323-1.605.447-3.211.868-4.836 1.263a175.6 175.6 0 0 1-36.906 4.994 161 161 0 0 1-5.066.072c-.842 0-1.671-.006-2.514-.013q-.384-.001-.769-.013c-.744-.02-1.514-.033-2.29-.053a175.5 175.5 0 0 1-44.315-7.125l-.612-.178c-.947-.29-1.888-.573-2.829-.875a176 176 0 0 1-12.837-4.619 178 178 0 0 1-9.541-4.172.2.2 0 0 1-.079-.039 93 93 0 0 1-1.98-.941q-.13-.069-.27-.138a179 179 0 0 1-7.284-3.764c-2.02-4.639-4.862-5.527-6.625-9.606a17 17 0 0 1-1.106-3.777c0-.013-.006-.026-.006-.046.184 2.448-.783-4.343-.007-.026l-.02-.264a33 33 0 0 0-.085-.888c-2.257-22.035-2.112-47.236-3.093-68.001a412 412 0 0 0-.204-3.856c-.019-.408-.046-.809-.072-1.204.046-.119.099-.244.158-.362a1 1 0 0 1 .046-.099 1 1 0 0 1 .066-.118l.046-.066a.4.4 0 0 1 .033-.066c.059-.092.125-.191.197-.283.033-.039.059-.072.092-.105a.5.5 0 0 1 .079-.092.4.4 0 0 1 .073-.086l.085-.092a.2.2 0 0 1 .053-.052q.078-.09.171-.165.353-.325.75-.592c.092-.059.191-.118.283-.184a12.5 12.5 0 0 1 2.086-1c.25-.093.5-.178.769-.27.099-.026.191-.059.29-.092.145-.046.289-.092.441-.125.75-.224 1.559-.415 2.434-.592q.16-.029.329-.066c.158-.033.323-.059.487-.086l.684-.118c1.955-.309 4.172-.54 6.62-.691l.691-.04.815-.039q.348-.018.704-.026c.231-.014.468-.02.711-.027q.999-.03 2.046-.052c1.987-.04 4.08-.027 6.277.019 1.02.027 2.06.053 3.126.099.072 0 .138.007.204.007.928.033 1.862.072 2.822.125q1.009.048 2.027.105.957.057 1.934.125c.507.026 1.014.066 1.527.099q.65.05 1.303.092l.592.039c.322.027.645.046.974.079.723.059 1.447.119 2.184.178.731.066 1.474.131 2.218.197a268 268 0 0 1 2.467.231c.684.072 1.369.138 2.059.21.158.013.323.026.481.046.658.066 1.33.144 1.995.214l.611.066c.521.057 1.034.106 1.559.168.69.079 1.395.151 2.079.243q.8.087 1.599.184a195 195 0 0 1 2.533.316c.322.04.645.079.967.125 2.421.303 4.869.638 7.356.987 3.77.533 7.6 1.112 11.456 1.737q5.793.937 11.652 1.981 1.479.264 2.968.539l1.342.257c.763.138 1.526.283 2.29.427q1.144.216 2.289.441l2.731.533a641 641 0 0 1 17.732 3.77c.954.218 1.909.441 2.856.658q2.842.662 5.632 1.343c.514.118 1.02.243 1.527.368 1.263.316 2.526.632 3.77.954l.217.059c.915.224 1.81.454 2.704.691q3.168.83 6.231 1.678 2.034.563 4.021 1.138c1.98.573 3.921 1.152 5.809 1.737q.704.22 1.395.428c1.382.428 2.744.862 4.067 1.296a258 258 0 0 1 6.073 2.086c.625.224 1.243.461 1.862.684q1.333.493 2.619.987c.263.099.519.204.776.303.164.072.322.132.48.197.309.125.625.244.928.369q.462.177.915.375c.296.118.598.243.888.368.296.119.585.244.875.375q.364.15.711.31c.467.204.934.408 1.388.618.224.105.447.204.671.309l.513.237q.11.058.217.106c.165.079.336.164.5.243.382.178.757.368 1.126.546q.741.376 1.434.744.702.377 1.355.743c.073.04.139.079.211.119.099.052.197.111.296.164.336.191.658.388.98.579q.95.58 1.79 1.152c.125.085.244.171.369.25.414.296.809.585 1.177.881q-.002.009.007.007c.125.092.243.191.362.283.098.092.204.171.302.263.343.296.658.579.948.868q.145.135.276.283a1 1 0 0 1 .106.106q.196.197.361.394a.3.3 0 0 1 .046.06q.236.276.441.552c.066.092.139.185.198.277.079.112.158.23.223.342.06.092.112.191.165.283q.21.356.355.743.111.262.178.54.075.263.112.533"/><path fill="#000" d="M357.932 303.613c-.007 1.151-.02 2.763-.073 4.757-.006.276-.02.559-.026.849a876 876 0 0 1-.329 10.856c-.184 4.764-.474 10.311-.974 19.095-.928 16.225-2.546 2.23-4.171 7.921a463 463 0 0 0-14.752-8.672 820 820 0 0 0-2.889-1.625c-10.58-5.902-22.397-12.087-34.734-18.212-.487-.244-.98-.487-1.467-.724-28.26-13.969-59.106-27.556-84.096-36.623a389 389 0 0 0-13.758-4.718c-9.12-2.915-17.002-4.954-23.069-5.836-6.316-.921-10.679-.592-12.442 1.309a496 496 0 0 0-.204-3.855l-.079-1.204c.041-.109.094-.212.145-.316l.02-.046a1 1 0 0 1 .046-.099 1 1 0 0 1 .065-.118.7.7 0 0 1 .079-.132c.06-.092.125-.191.198-.283q.08-.104.171-.197a.4.4 0 0 1 .072-.086l.086-.092a.2.2 0 0 1 .052-.053q.08-.089.172-.164.352-.325.75-.592c.092-.059.19-.119.283-.185a12.7 12.7 0 0 1 2.085-1c.25-.092.5-.177.77-.269.099-.027.191-.06.29-.092.144-.047.289-.093.441-.125.75-.224 1.559-.415 2.434-.593.263-.052.54-.105.816-.151l.684-.118c1.954-.31 4.172-.54 6.619-.691l.691-.04.816-.039q.347-.018.704-.027c.23-.013.467-.019.711-.026.664-.02 1.349-.039 2.046-.053 1.987-.032 4.08-.019 6.277.027q1.529.029 3.126.098c.065 0 .138.007.204.007.927.026 1.868.072 2.822.118q1.008.048 2.027.106.957.057 1.934.125c.507.026 1.013.066 1.527.098a95 95 0 0 0 1.302.093l1.566.118 2.185.178 2.217.197q1.117.1 2.244.211l.224.019c.684.073 1.368.139 2.059.211q5.745.582 11.824 1.362 3.631.463 7.356.993c3.77.533 7.6 1.112 11.455 1.731q5.794.938 11.653 1.98 1.479.265 2.967.54 1.816.336 3.633.684 1.144.216 2.289.441l2.731.533a637 637 0 0 1 17.732 3.77c.954.217 1.908.441 2.856.658q2.842.661 5.632 1.342l1.527.375q1.904.474 3.77.948v.007q.108.02.217.052 1.362.344 2.704.698 3.168.828 6.231 1.671c1.356.381 2.698.757 4.02 1.138a460 460 0 0 1 7.205 2.165q2.073.651 4.066 1.296a240 240 0 0 1 6.074 2.086c.631.224 1.25.454 1.862.678.894.329 1.763.658 2.618.993.263.099.52.204.777.303q.718.278 1.408.566.462.177.914.375c.296.118.599.243.889.368.296.119.585.244.875.375q.365.15.71.309c.468.204.935.408 1.389.619.223.105.447.204.671.309l.513.237c.072.04.145.072.217.105q.837.396 1.625.79.742.377 1.435.743c.546.29 1.066.573 1.566.862.098.053.197.112.296.165.335.191.658.388.98.579q.95.58 1.79 1.151.828.571 1.546 1.132-.002.009.007.007.347.278.664.546c.342.296.658.579.948.868q.145.135.276.283a1 1 0 0 1 .105.105q.21.228.408.454.235.277.441.553c.066.092.138.184.198.276.079.112.157.231.223.343.059.092.112.19.165.283q.209.356.355.743.108.263.178.54.075.262.112.533" opacity=".2"/></svg>