<svg width="122" height="44" viewBox="0 0 122 44" fill="none" xmlns="http://www.w3.org/2000/svg">
<path d="M7.424 17.56C7.424 21.832 9.016 23.928 12.048 23.928C14.432 23.928 15.792 22.488 16.232 19.48H22.92C22.152 25.68 18.048 29.48 12.048 29.48C5.416 29.48 0.608 24.832 0.608 17.56C0.608 10.288 5.416 5.64 12.048 5.64C18.048 5.64 22.152 9.44 22.92 15.64H16.232C15.792 12.632 14.432 11.192 12.048 11.192C9.016 11.192 7.424 13.288 7.424 17.56ZM28.8633 29H21.7992L29.0473 6.12H38.1833L45.3193 29H38.1112L37.0713 24.672H29.9273L28.8633 29ZM31.2153 19.456H35.8153L33.5353 9.992L31.2153 19.456ZM52.6938 29H45.9418V6.104H57.5098C63.2218 6.104 66.2938 8.72 66.2938 13.208C66.2938 17.072 63.8298 19.592 59.9498 19.72C61.8698 19.848 63.3418 21.064 64.3658 23.328L66.9098 29H59.3898L56.7818 23.344C55.9098 21.456 55.5418 21.064 54.4138 21.064H52.6938V29ZM52.6938 16.024H56.7818C58.5498 16.024 59.5338 15.184 59.5338 13.664C59.5338 12.152 58.5658 11.336 56.7738 11.336H52.6938V16.024ZM74.1133 29H67.0492L74.2973 6.12H83.4333L90.5693 29H83.3612L82.3213 24.672H75.1773L74.1133 29ZM76.4653 19.456H81.0653L78.7853 9.992L76.4653 19.456ZM97.9438 6.12V29H91.1918V6.12H97.9438Z" fill="#F3F3F6"/>
</svg>
