<svg width="518" height="377" viewBox="0 0 518 377" fill="none" xmlns="http://www.w3.org/2000/svg">
<g clipPath="url(#clip0_2982_19133)">
<path d="M301.563 66.378C311.265 66.378 319.131 58.5123 319.131 48.8096C319.131 39.1068 311.265 31.2412 301.563 31.2412C291.86 31.2412 283.994 39.1068 283.994 48.8096C283.994 58.5123 291.86 66.378 301.563 66.378Z" fill="#F2F2F2"/>
<path d="M437.846 327.112C463.96 307.222 476.432 273.8 468.624 241.916C468.43 241.124 468.225 240.334 468.01 239.545C462.833 220.619 450.026 202.632 431.36 196.585C415.688 191.508 398.581 195.412 382.23 193.393C350.133 189.429 325.249 163.459 307.74 136.268C290.231 109.077 276.775 78.6407 253.509 56.177C215.159 19.1493 152.601 11.1772 105.053 35.2795C57.5045 59.3818 27.2168 112.855 28.5085 166.147C29.8002 219.44 61.4376 270.391 107.383 297.424C124.261 307.355 143.783 314.39 163.211 311.928C180.068 309.792 195.385 300.734 212.163 298.045C238.542 293.817 264.753 305.744 287.569 319.642C310.384 333.541 332.423 350.014 358.35 356.458C383.525 362.714 414.714 344.731 437.846 327.112Z" fill="#F2F2F2"/>
<path d="M400.329 36.3991C399.756 36.0174 399.177 35.6556 398.605 35.2871C382.057 24.7041 364.321 16.1066 345.763 9.6722L341.46 69.0345H314.18V1.0067C312.463 0.651392 310.732 0.315827 309.002 0V69.0345H276.584C258.737 69.0345 241.621 61.945 229.002 49.3255C216.382 36.706 209.293 19.5903 209.293 1.7437C207.556 2.11875 205.832 2.52005 204.108 2.94774V69.0345H177.703L173.604 12.4291C154.533 19.7433 136.427 29.3619 119.69 41.0707C119.4 41.2681 119.111 41.472 118.828 41.6694C117.374 42.6893 115.94 43.7289 114.512 44.7817V271.249H192.33L190.955 252.201L183.388 147.616H335.768L328.202 252.201L326.826 271.249H403.783V38.6888C402.638 37.9124 401.487 37.1492 400.329 36.3991ZM204.108 130.344H182.138L178.079 74.2194H204.108V130.344ZM309.002 130.344H272.103V129.232C272.103 128.698 271.997 128.169 271.793 127.675C271.588 127.181 271.288 126.732 270.91 126.355C270.531 125.977 270.082 125.678 269.588 125.474C269.094 125.27 268.565 125.165 268.03 125.166H251.989C251.455 125.166 250.926 125.271 250.432 125.475C249.939 125.68 249.49 125.979 249.113 126.357C248.735 126.734 248.436 127.183 248.231 127.676C248.027 128.17 247.922 128.698 247.922 129.232V130.344H209.293V74.2194H309.002V130.344ZM314.18 130.344V74.2194H341.085L337.025 130.344H314.18Z" fill="#3F3D56"/>
<path d="M0 285.752C5.71598 292.525 11.8985 298.89 18.5022 304.8L499.204 305.458C505.808 299.548 511.99 293.183 517.706 286.41L0 285.752Z" fill="#3F3D56"/>
<path d="M325.979 224.758V281.149C325.979 281.868 326.265 282.557 326.773 283.065C327.281 283.573 327.97 283.859 328.689 283.859H412.254C412.973 283.859 413.662 283.573 414.17 283.065C414.678 282.557 414.964 281.868 414.964 281.149V224.758C414.963 224.04 414.677 223.352 414.169 222.845C413.661 222.337 412.972 222.052 412.254 222.051H328.689C327.971 222.052 327.282 222.337 326.774 222.845C326.266 223.352 325.98 224.04 325.979 224.758Z" fill="#3F3D56"/>
<path d="M327.939 225.459V280.453C327.94 280.837 328.093 281.205 328.364 281.476C328.636 281.748 329.004 281.901 329.388 281.901H411.559C411.943 281.901 412.311 281.748 412.583 281.476C412.854 281.205 413.007 280.837 413.008 280.453V225.459C413.008 225.075 412.855 224.706 412.584 224.434C412.312 224.162 411.944 224.009 411.559 224.008H329.388C329.004 224.009 328.635 224.162 328.364 224.434C328.092 224.706 327.939 225.075 327.939 225.459Z" fill="#6C63FF"/>
<path d="M324.232 292.146C324.385 292.338 324.579 292.493 324.801 292.599C325.022 292.705 325.265 292.76 325.51 292.758H414.989C415.234 292.758 415.476 292.703 415.696 292.598C415.917 292.492 416.112 292.339 416.266 292.149C416.42 291.959 416.53 291.737 416.588 291.499C416.645 291.261 416.649 291.014 416.599 290.774L415.21 284.176C415.152 283.907 415.028 283.657 414.849 283.448C414.67 283.239 414.442 283.078 414.185 282.98C413.998 282.907 413.8 282.87 413.6 282.87H326.894C326.694 282.87 326.496 282.907 326.309 282.98C326.052 283.078 325.824 283.239 325.645 283.448C325.466 283.657 325.342 283.907 325.284 284.176L323.895 290.774C323.846 291.013 323.85 291.261 323.909 291.498C323.967 291.736 324.077 291.957 324.232 292.146Z" fill="#2F2E41"/>
<path d="M410.53 285.712H412.644C412.821 285.712 412.965 285.568 412.965 285.391V284.38C412.965 284.202 412.821 284.058 412.644 284.058H410.53C410.353 284.058 410.209 284.202 410.209 284.38V285.391C410.209 285.568 410.353 285.712 410.53 285.712Z" fill="#3F3D56"/>
<path d="M405.018 285.712H407.132C407.309 285.712 407.453 285.568 407.453 285.391V284.38C407.453 284.202 407.309 284.058 407.132 284.058H405.018C404.841 284.058 404.697 284.202 404.697 284.38V285.391C404.697 285.568 404.841 285.712 405.018 285.712Z" fill="#3F3D56"/>
<path d="M399.507 285.712H401.62C401.798 285.712 401.941 285.568 401.941 285.391V284.38C401.941 284.202 401.798 284.058 401.62 284.058H399.507C399.329 284.058 399.186 284.202 399.186 284.38V285.391C399.186 285.568 399.329 285.712 399.507 285.712Z" fill="#3F3D56"/>
<path d="M393.995 285.712H396.108C396.286 285.712 396.43 285.568 396.43 285.391V284.38C396.43 284.202 396.286 284.058 396.108 284.058H393.995C393.818 284.058 393.674 284.202 393.674 284.38V285.391C393.674 285.568 393.818 285.712 393.995 285.712Z" fill="#3F3D56"/>
<path d="M388.481 285.712H390.595C390.772 285.712 390.916 285.568 390.916 285.391V284.38C390.916 284.202 390.772 284.058 390.595 284.058H388.481C388.304 284.058 388.16 284.202 388.16 284.38V285.391C388.16 285.568 388.304 285.712 388.481 285.712Z" fill="#3F3D56"/>
<path d="M382.97 285.712H385.083C385.26 285.712 385.404 285.568 385.404 285.391V284.38C385.404 284.202 385.26 284.058 385.083 284.058H382.97C382.792 284.058 382.648 284.202 382.648 284.38V285.391C382.648 285.568 382.792 285.712 382.97 285.712Z" fill="#3F3D56"/>
<path d="M377.458 285.712H379.571C379.749 285.712 379.893 285.568 379.893 285.391V284.38C379.893 284.202 379.749 284.058 379.571 284.058H377.458C377.28 284.058 377.137 284.202 377.137 284.38V285.391C377.137 285.568 377.28 285.712 377.458 285.712Z" fill="#3F3D56"/>
<path d="M371.948 285.712H374.062C374.239 285.712 374.383 285.568 374.383 285.391V284.38C374.383 284.202 374.239 284.058 374.062 284.058H371.948C371.771 284.058 371.627 284.202 371.627 284.38V285.391C371.627 285.568 371.771 285.712 371.948 285.712Z" fill="#3F3D56"/>
<path d="M366.436 285.712H368.55C368.727 285.712 368.871 285.568 368.871 285.391V284.38C368.871 284.202 368.727 284.058 368.55 284.058H366.436C366.259 284.058 366.115 284.202 366.115 284.38V285.391C366.115 285.568 366.259 285.712 366.436 285.712Z" fill="#3F3D56"/>
<path d="M360.923 285.712H363.036C363.214 285.712 363.357 285.568 363.357 285.391V284.38C363.357 284.202 363.214 284.058 363.036 284.058H360.923C360.745 284.058 360.601 284.202 360.601 284.38V285.391C360.601 285.568 360.745 285.712 360.923 285.712Z" fill="#3F3D56"/>
<path d="M355.411 285.712H357.525C357.702 285.712 357.846 285.568 357.846 285.391V284.38C357.846 284.202 357.702 284.058 357.525 284.058H355.411C355.234 284.058 355.09 284.202 355.09 284.38V285.391C355.09 285.568 355.234 285.712 355.411 285.712Z" fill="#3F3D56"/>
<path d="M349.899 285.712H352.013C352.19 285.712 352.334 285.568 352.334 285.391V284.38C352.334 284.202 352.19 284.058 352.013 284.058H349.899C349.722 284.058 349.578 284.202 349.578 284.38V285.391C349.578 285.568 349.722 285.712 349.899 285.712Z" fill="#3F3D56"/>
<path d="M344.388 285.712H346.501C346.678 285.712 346.822 285.568 346.822 285.391V284.38C346.822 284.202 346.678 284.058 346.501 284.058H344.388C344.21 284.058 344.066 284.202 344.066 284.38V285.391C344.066 285.568 344.21 285.712 344.388 285.712Z" fill="#3F3D56"/>
<path d="M338.878 285.712H340.991C341.169 285.712 341.312 285.568 341.312 285.391V284.38C341.312 284.202 341.169 284.058 340.991 284.058H338.878C338.7 284.058 338.557 284.202 338.557 284.38V285.391C338.557 285.568 338.7 285.712 338.878 285.712Z" fill="#3F3D56"/>
<path d="M333.364 285.712H335.478C335.655 285.712 335.799 285.568 335.799 285.391V284.38C335.799 284.202 335.655 284.058 335.478 284.058H333.364C333.187 284.058 333.043 284.202 333.043 284.38V285.391C333.043 285.568 333.187 285.712 333.364 285.712Z" fill="#3F3D56"/>
<path d="M327.852 285.712H329.966C330.143 285.712 330.287 285.568 330.287 285.391V284.38C330.287 284.202 330.143 284.058 329.966 284.058H327.852C327.675 284.058 327.531 284.202 327.531 284.38V285.391C327.531 285.568 327.675 285.712 327.852 285.712Z" fill="#3F3D56"/>
<path d="M410.597 288.468H412.71C412.887 288.468 413.031 288.324 413.031 288.147V287.135C413.031 286.958 412.887 286.814 412.71 286.814H410.597C410.419 286.814 410.275 286.958 410.275 287.135V288.147C410.275 288.324 410.419 288.468 410.597 288.468Z" fill="#3F3D56"/>
<path d="M405.083 288.468H407.196C407.374 288.468 407.518 288.324 407.518 288.147V287.135C407.518 286.958 407.374 286.814 407.196 286.814H405.083C404.905 286.814 404.762 286.958 404.762 287.135V288.147C404.762 288.324 404.905 288.468 405.083 288.468Z" fill="#3F3D56"/>
<path d="M399.571 288.468H401.685C401.862 288.468 402.006 288.324 402.006 288.147V287.135C402.006 286.958 401.862 286.814 401.685 286.814H399.571C399.394 286.814 399.25 286.958 399.25 287.135V288.147C399.25 288.324 399.394 288.468 399.571 288.468Z" fill="#3F3D56"/>
<path d="M394.059 288.468H396.173C396.35 288.468 396.494 288.324 396.494 288.147V287.135C396.494 286.958 396.35 286.814 396.173 286.814H394.059C393.882 286.814 393.738 286.958 393.738 287.135V288.147C393.738 288.324 393.882 288.468 394.059 288.468Z" fill="#3F3D56"/>
<path d="M388.548 288.468H390.661C390.839 288.468 390.982 288.324 390.982 288.147V287.135C390.982 286.958 390.839 286.814 390.661 286.814H388.548C388.37 286.814 388.227 286.958 388.227 287.135V288.147C388.227 288.324 388.37 288.468 388.548 288.468Z" fill="#3F3D56"/>
<path d="M383.036 288.468H385.15C385.327 288.468 385.471 288.324 385.471 288.147V287.135C385.471 286.958 385.327 286.814 385.15 286.814H383.036C382.859 286.814 382.715 286.958 382.715 287.135V288.147C382.715 288.324 382.859 288.468 383.036 288.468Z" fill="#3F3D56"/>
<path d="M377.524 288.468H379.638C379.815 288.468 379.959 288.324 379.959 288.147V287.135C379.959 286.958 379.815 286.814 379.638 286.814H377.524C377.347 286.814 377.203 286.958 377.203 287.135V288.147C377.203 288.324 377.347 288.468 377.524 288.468Z" fill="#3F3D56"/>
<path d="M372.013 288.468H374.126C374.303 288.468 374.447 288.324 374.447 288.147V287.135C374.447 286.958 374.303 286.814 374.126 286.814H372.013C371.835 286.814 371.691 286.958 371.691 287.135V288.147C371.691 288.324 371.835 288.468 372.013 288.468Z" fill="#3F3D56"/>
<path d="M366.499 288.468H368.612C368.79 288.468 368.934 288.324 368.934 288.147V287.135C368.934 286.958 368.79 286.814 368.612 286.814H366.499C366.322 286.814 366.178 286.958 366.178 287.135V288.147C366.178 288.324 366.322 288.468 366.499 288.468Z" fill="#3F3D56"/>
<path d="M360.989 288.468H363.103C363.28 288.468 363.424 288.324 363.424 288.147V287.135C363.424 286.958 363.28 286.814 363.103 286.814H360.989C360.812 286.814 360.668 286.958 360.668 287.135V288.147C360.668 288.324 360.812 288.468 360.989 288.468Z" fill="#3F3D56"/>
<path d="M355.477 288.468H357.591C357.768 288.468 357.912 288.324 357.912 288.147V287.135C357.912 286.958 357.768 286.814 357.591 286.814H355.477C355.3 286.814 355.156 286.958 355.156 287.135V288.147C355.156 288.324 355.3 288.468 355.477 288.468Z" fill="#3F3D56"/>
<path d="M349.966 288.468H352.079C352.257 288.468 352.4 288.324 352.4 288.147V287.135C352.4 286.958 352.257 286.814 352.079 286.814H349.966C349.788 286.814 349.644 286.958 349.644 287.135V288.147C349.644 288.324 349.788 288.468 349.966 288.468Z" fill="#3F3D56"/>
<path d="M344.454 288.468H346.567C346.745 288.468 346.889 288.324 346.889 288.147V287.135C346.889 286.958 346.745 286.814 346.567 286.814H344.454C344.277 286.814 344.133 286.958 344.133 287.135V288.147C344.133 288.324 344.277 288.468 344.454 288.468Z" fill="#3F3D56"/>
<path d="M338.94 288.468H341.054C341.231 288.468 341.375 288.324 341.375 288.147V287.135C341.375 286.958 341.231 286.814 341.054 286.814H338.94C338.763 286.814 338.619 286.958 338.619 287.135V288.147C338.619 288.324 338.763 288.468 338.94 288.468Z" fill="#3F3D56"/>
<path d="M333.429 288.468H335.542C335.719 288.468 335.863 288.324 335.863 288.147V287.135C335.863 286.958 335.719 286.814 335.542 286.814H333.429C333.251 286.814 333.107 286.958 333.107 287.135V288.147C333.107 288.324 333.251 288.468 333.429 288.468Z" fill="#3F3D56"/>
<path d="M327.917 288.468H330.03C330.208 288.468 330.352 288.324 330.352 288.147V287.135C330.352 286.958 330.208 286.814 330.03 286.814H327.917C327.739 286.814 327.596 286.958 327.596 287.135V288.147C327.596 288.324 327.739 288.468 327.917 288.468Z" fill="#3F3D56"/>
<path d="M364.846 291.774H386.251C386.428 291.774 386.572 291.631 386.572 291.453V290.442C386.572 290.265 386.428 290.121 386.251 290.121H364.846C364.669 290.121 364.525 290.265 364.525 290.442V291.453C364.525 291.631 364.669 291.774 364.846 291.774Z" fill="#3F3D56"/>
<path d="M342.17 236.039H340.299C339.731 236.039 339.271 236.499 339.271 237.066C339.271 237.633 339.731 238.093 340.299 238.093H342.17C342.737 238.093 343.197 237.633 343.197 237.066C343.197 236.499 342.737 236.039 342.17 236.039Z" fill="white"/>
<path d="M363.568 236.039H361.697C361.13 236.039 360.67 236.499 360.67 237.066C360.67 237.633 361.13 238.093 361.697 238.093H363.568C364.135 238.093 364.595 237.633 364.595 237.066C364.595 236.499 364.135 236.039 363.568 236.039Z" fill="white"/>
<path d="M369.631 236.039H367.76C367.192 236.039 366.732 236.499 366.732 237.066C366.732 237.633 367.192 238.093 367.76 238.093H369.631C370.198 238.093 370.658 237.633 370.658 237.066C370.658 236.499 370.198 236.039 369.631 236.039Z" fill="white"/>
<path d="M357.748 235.868H346.119C345.552 235.868 345.092 236.328 345.092 236.895C345.092 237.463 345.552 237.922 346.119 237.922H357.748C358.315 237.922 358.775 237.463 358.775 236.895C358.775 236.328 358.315 235.868 357.748 235.868Z" fill="white"/>
<path d="M386.279 235.868H374.65C374.083 235.868 373.623 236.328 373.623 236.895C373.623 237.463 374.083 237.922 374.65 237.922H386.279C386.846 237.922 387.306 237.463 387.306 236.895C387.306 236.328 386.846 235.868 386.279 235.868Z" fill="white"/>
<path d="M347.875 240.676H346.004C345.436 240.676 344.977 241.136 344.977 241.703C344.977 242.27 345.436 242.73 346.004 242.73H347.875C348.442 242.73 348.902 242.27 348.902 241.703C348.902 241.136 348.442 240.676 347.875 240.676Z" fill="white"/>
<path d="M369.275 240.676H367.404C366.837 240.676 366.377 241.136 366.377 241.703C366.377 242.27 366.837 242.73 367.404 242.73H369.275C369.842 242.73 370.302 242.27 370.302 241.703C370.302 241.136 369.842 240.676 369.275 240.676Z" fill="white"/>
<path d="M375.338 240.676H373.467C372.899 240.676 372.439 241.136 372.439 241.703C372.439 242.27 372.899 242.73 373.467 242.73H375.338C375.905 242.73 376.365 242.27 376.365 241.703C376.365 241.136 375.905 240.676 375.338 240.676Z" fill="white"/>
<path d="M363.453 240.505H351.824C351.257 240.505 350.797 240.965 350.797 241.532C350.797 242.099 351.257 242.559 351.824 242.559H363.453C364.02 242.559 364.48 242.099 364.48 241.532C364.48 240.965 364.02 240.505 363.453 240.505Z" fill="white"/>
<path d="M391.986 240.505H380.357C379.79 240.505 379.33 240.965 379.33 241.532C379.33 242.099 379.79 242.559 380.357 242.559H391.986C392.553 242.559 393.013 242.099 393.013 241.532C393.013 240.965 392.553 240.505 391.986 240.505Z" fill="white"/>
<path d="M353.582 245.312H351.711C351.143 245.312 350.684 245.772 350.684 246.34C350.684 246.907 351.143 247.367 351.711 247.367H353.582C354.149 247.367 354.609 246.907 354.609 246.34C354.609 245.772 354.149 245.312 353.582 245.312Z" fill="white"/>
<path d="M374.982 245.312H373.111C372.544 245.312 372.084 245.772 372.084 246.34C372.084 246.907 372.544 247.367 373.111 247.367H374.982C375.549 247.367 376.009 246.907 376.009 246.34C376.009 245.772 375.549 245.312 374.982 245.312Z" fill="white"/>
<path d="M381.045 245.312H379.174C378.606 245.312 378.146 245.772 378.146 246.34C378.146 246.907 378.606 247.367 379.174 247.367H381.045C381.612 247.367 382.072 246.907 382.072 246.34C382.072 245.772 381.612 245.312 381.045 245.312Z" fill="white"/>
<path d="M369.16 245.141H357.531C356.964 245.141 356.504 245.601 356.504 246.168C356.504 246.735 356.964 247.195 357.531 247.195H369.16C369.727 247.195 370.187 246.735 370.187 246.168C370.187 245.601 369.727 245.141 369.16 245.141Z" fill="white"/>
<path d="M397.693 245.141H386.064C385.497 245.141 385.037 245.601 385.037 246.168C385.037 246.735 385.497 247.195 386.064 247.195H397.693C398.261 247.195 398.72 246.735 398.72 246.168C398.72 245.601 398.261 245.141 397.693 245.141Z" fill="white"/>
<path d="M359.289 249.949H357.418C356.851 249.949 356.391 250.409 356.391 250.976C356.391 251.544 356.851 252.003 357.418 252.003H359.289C359.856 252.003 360.316 251.544 360.316 250.976C360.316 250.409 359.856 249.949 359.289 249.949Z" fill="white"/>
<path d="M380.689 249.949H378.818C378.251 249.949 377.791 250.409 377.791 250.976C377.791 251.544 378.251 252.003 378.818 252.003H380.689C381.257 252.003 381.716 251.544 381.716 250.976C381.716 250.409 381.257 249.949 380.689 249.949Z" fill="white"/>
<path d="M386.752 249.949H384.881C384.313 249.949 383.854 250.409 383.854 250.976C383.854 251.544 384.313 252.003 384.881 252.003H386.752C387.319 252.003 387.779 251.544 387.779 250.976C387.779 250.409 387.319 249.949 386.752 249.949Z" fill="white"/>
<path d="M374.867 249.777H363.238C362.671 249.777 362.211 250.237 362.211 250.804C362.211 251.372 362.671 251.832 363.238 251.832H374.867C375.434 251.832 375.894 251.372 375.894 250.804C375.894 250.237 375.434 249.777 374.867 249.777Z" fill="white"/>
<path d="M363.568 268.386H361.697C361.13 268.386 360.67 268.846 360.67 269.413C360.67 269.98 361.13 270.44 361.697 270.44H363.568C364.135 270.44 364.595 269.98 364.595 269.413C364.595 268.846 364.135 268.386 363.568 268.386Z" fill="white"/>
<path d="M369.631 268.386H367.76C367.192 268.386 366.732 268.846 366.732 269.413C366.732 269.98 367.192 270.44 367.76 270.44H369.631C370.198 270.44 370.658 269.98 370.658 269.413C370.658 268.846 370.198 268.386 369.631 268.386Z" fill="white"/>
<path d="M386.279 268.557H374.65C374.083 268.557 373.623 269.017 373.623 269.584C373.623 270.151 374.083 270.611 374.65 270.611H386.279C386.846 270.611 387.306 270.151 387.306 269.584C387.306 269.017 386.846 268.557 386.279 268.557Z" fill="white"/>
<path d="M342.17 268.386H340.299C339.731 268.386 339.271 268.846 339.271 269.413C339.271 269.98 339.731 270.44 340.299 270.44H342.17C342.737 270.44 343.197 269.98 343.197 269.413C343.197 268.846 342.737 268.386 342.17 268.386Z" fill="white"/>
<path d="M357.748 268.557H346.119C345.552 268.557 345.092 269.017 345.092 269.584C345.092 270.151 345.552 270.611 346.119 270.611H357.748C358.315 270.611 358.775 270.151 358.775 269.584C358.775 269.017 358.315 268.557 357.748 268.557Z" fill="white"/>
<path d="M347.875 263.749H346.004C345.436 263.749 344.977 264.209 344.977 264.776C344.977 265.343 345.436 265.803 346.004 265.803H347.875C348.442 265.803 348.902 265.343 348.902 264.776C348.902 264.209 348.442 263.749 347.875 263.749Z" fill="white"/>
<path d="M369.275 263.749H367.404C366.837 263.749 366.377 264.209 366.377 264.776C366.377 265.343 366.837 265.803 367.404 265.803H369.275C369.842 265.803 370.302 265.343 370.302 264.776C370.302 264.209 369.842 263.749 369.275 263.749Z" fill="white"/>
<path d="M375.338 263.749H373.467C372.899 263.749 372.439 264.209 372.439 264.776C372.439 265.343 372.899 265.803 373.467 265.803H375.338C375.905 265.803 376.365 265.343 376.365 264.776C376.365 264.209 375.905 263.749 375.338 263.749Z" fill="white"/>
<path d="M363.453 263.92H351.824C351.257 263.92 350.797 264.38 350.797 264.947C350.797 265.514 351.257 265.974 351.824 265.974H363.453C364.02 265.974 364.48 265.514 364.48 264.947C364.48 264.38 364.02 263.92 363.453 263.92Z" fill="white"/>
<path d="M353.582 259.112H351.711C351.143 259.112 350.684 259.572 350.684 260.139C350.684 260.707 351.143 261.167 351.711 261.167H353.582C354.149 261.167 354.609 260.707 354.609 260.139C354.609 259.572 354.149 259.112 353.582 259.112Z" fill="white"/>
<path d="M374.982 259.112H373.111C372.544 259.112 372.084 259.572 372.084 260.139C372.084 260.707 372.544 261.167 373.111 261.167H374.982C375.549 261.167 376.009 260.707 376.009 260.139C376.009 259.572 375.549 259.112 374.982 259.112Z" fill="white"/>
<path d="M381.045 259.112H379.174C378.606 259.112 378.146 259.572 378.146 260.139C378.146 260.707 378.606 261.167 379.174 261.167H381.045C381.612 261.167 382.072 260.707 382.072 260.139C382.072 259.572 381.612 259.112 381.045 259.112Z" fill="white"/>
<path d="M369.16 259.284H357.531C356.964 259.284 356.504 259.744 356.504 260.311C356.504 260.879 356.964 261.338 357.531 261.338H369.16C369.727 261.338 370.187 260.879 370.187 260.311C370.187 259.744 369.727 259.284 369.16 259.284Z" fill="white"/>
<path d="M359.289 254.476H357.418C356.851 254.476 356.391 254.935 356.391 255.503C356.391 256.07 356.851 256.53 357.418 256.53H359.289C359.856 256.53 360.316 256.07 360.316 255.503C360.316 254.935 359.856 254.476 359.289 254.476Z" fill="white"/>
<path d="M380.689 254.476H378.818C378.251 254.476 377.791 254.935 377.791 255.503C377.791 256.07 378.251 256.53 378.818 256.53H380.689C381.257 256.53 381.716 256.07 381.716 255.503C381.716 254.935 381.257 254.476 380.689 254.476Z" fill="white"/>
<path d="M386.752 254.476H384.881C384.313 254.476 383.854 254.935 383.854 255.503C383.854 256.07 384.313 256.53 384.881 256.53H386.752C387.319 256.53 387.779 256.07 387.779 255.503C387.779 254.935 387.319 254.476 386.752 254.476Z" fill="white"/>
<path d="M374.867 254.647H363.238C362.671 254.647 362.211 255.107 362.211 255.675C362.211 256.242 362.671 256.702 363.238 256.702H374.867C375.434 256.702 375.894 256.242 375.894 255.675C375.894 255.107 375.434 254.647 374.867 254.647Z" fill="white"/>
<path d="M332.221 322.724L323.438 308.839L351.008 286.861L362.388 274.254C363.866 272.616 365.749 271.395 367.847 270.712C369.945 270.03 372.186 269.91 374.345 270.364C376.504 270.819 378.506 271.833 380.151 273.303C381.796 274.774 383.026 276.651 383.718 278.746C384.744 281.851 384.523 285.233 383.103 288.178C381.682 291.123 379.173 293.401 376.105 294.532L358.11 301.161L332.221 322.724Z" fill="#FFB6B6"/>
<path d="M126.127 222.053V289.535H173.402V222.053C173.403 221.568 173.248 221.095 172.96 220.704C172.673 220.313 172.267 220.025 171.803 219.882C171.585 219.81 171.356 219.774 171.126 219.776H128.41C128.111 219.776 127.814 219.834 127.537 219.948C127.26 220.063 127.009 220.23 126.797 220.442C126.585 220.653 126.416 220.904 126.301 221.181C126.187 221.457 126.127 221.754 126.127 222.053ZM144.577 245.24C144.589 243.91 145.126 242.638 146.071 241.702C147.016 240.765 148.293 240.24 149.623 240.24C150.954 240.24 152.23 240.765 153.175 241.702C154.12 242.638 154.657 243.91 154.67 245.24V253.07C154.663 254.404 154.128 255.681 153.183 256.622C152.237 257.563 150.957 258.091 149.623 258.091C148.289 258.091 147.009 257.563 146.064 256.622C145.118 255.681 144.583 254.404 144.577 253.07V245.24Z" fill="#2F2E41"/>
<path d="M125.982 287.377V293.884C125.983 294.221 126.117 294.544 126.355 294.783C126.593 295.022 126.915 295.158 127.252 295.161H172.277C172.615 295.159 172.938 295.024 173.176 294.785C173.414 294.545 173.547 294.222 173.547 293.884V287.377H125.982Z" fill="#3F3D56"/>
<path d="M51.7559 120.383V243.595C51.7571 245.165 52.3814 246.671 53.4917 247.781C54.6019 248.891 56.1075 249.515 57.6776 249.517H240.265C241.835 249.515 243.341 248.891 244.451 247.781C245.561 246.671 246.186 245.165 246.187 243.595V120.383C246.183 118.814 245.558 117.311 244.448 116.202C243.338 115.093 241.834 114.47 240.265 114.468H57.6776C56.1088 114.47 54.6047 115.093 53.4948 116.202C52.3849 117.311 51.7596 118.814 51.7559 120.383Z" fill="#3F3D56"/>
<path d="M56.0391 121.917V242.076C56.0405 242.914 56.3744 243.719 56.9676 244.312C57.5608 244.905 58.365 245.239 59.2039 245.24H238.745C239.584 245.239 240.388 244.905 240.981 244.312C241.574 243.719 241.908 242.914 241.91 242.076V121.917C241.91 121.077 241.576 120.271 240.983 119.676C240.39 119.082 239.585 118.747 238.745 118.745H59.2039C58.364 118.747 57.559 119.082 56.9657 119.676C56.3724 120.271 56.0391 121.077 56.0391 121.917Z" fill="white"/>
<path d="M89.3599 294.72C89.5426 294.949 89.7749 295.134 90.0393 295.261C90.3037 295.387 90.5933 295.452 90.8864 295.45H197.702C197.994 295.45 198.282 295.385 198.546 295.259C198.809 295.133 199.042 294.95 199.226 294.723C199.41 294.496 199.541 294.231 199.61 293.947C199.678 293.663 199.683 293.368 199.623 293.082L197.965 285.206C197.896 284.885 197.748 284.586 197.534 284.336C197.321 284.087 197.048 283.895 196.741 283.778C196.519 283.691 196.282 283.646 196.044 283.646H92.5379C92.2992 283.646 92.0626 283.691 91.8405 283.778C91.5336 283.895 91.2608 284.087 91.047 284.336C90.8333 284.586 90.6853 284.885 90.6166 285.206L88.9585 293.082C88.8995 293.368 88.905 293.663 88.9744 293.946C89.0438 294.23 89.1755 294.494 89.3599 294.72Z" fill="#2F2E41"/>
<path d="M232.917 135.297H64.921C64.7464 135.293 64.5802 135.221 64.4581 135.096C64.3359 134.971 64.2676 134.804 64.2676 134.629C64.2676 134.454 64.3359 134.287 64.4581 134.162C64.5802 134.037 64.7464 133.965 64.921 133.961H232.917C233.091 133.965 233.258 134.037 233.38 134.162C233.502 134.287 233.57 134.454 233.57 134.629C233.57 134.804 233.502 134.971 233.38 135.096C233.258 135.221 233.091 135.293 232.917 135.297Z" fill="#3F3D56"/>
<path d="M76.3566 130.55C78.5189 130.55 80.2718 128.758 80.2718 126.547C80.2718 124.337 78.5189 122.545 76.3566 122.545C74.1943 122.545 72.4414 124.337 72.4414 126.547C72.4414 128.758 74.1943 130.55 76.3566 130.55Z" fill="#3F3D56"/>
<path d="M89.884 130.55C92.0463 130.55 93.7992 128.758 93.7992 126.547C93.7992 124.337 92.0463 122.545 89.884 122.545C87.7217 122.545 85.9688 124.337 85.9688 126.547C85.9688 128.758 87.7217 130.55 89.884 130.55Z" fill="#3F3D56"/>
<path d="M103.407 130.55C105.57 130.55 107.323 128.758 107.323 126.547C107.323 124.337 105.57 122.545 103.407 122.545C101.245 122.545 99.4922 124.337 99.4922 126.547C99.4922 128.758 101.245 130.55 103.407 130.55Z" fill="#3F3D56"/>
<path d="M224.774 123.535H215.167C214.977 123.54 214.797 123.618 214.664 123.754C214.531 123.89 214.457 124.072 214.457 124.262C214.457 124.452 214.531 124.635 214.664 124.77C214.797 124.906 214.977 124.985 215.167 124.989H224.774C224.965 124.987 225.147 124.909 225.281 124.773C225.415 124.637 225.491 124.453 225.491 124.262C225.491 124.071 225.415 123.888 225.281 123.752C225.147 123.616 224.965 123.538 224.774 123.535Z" fill="#3F3D56"/>
<path d="M224.775 126.266H215.168C214.978 126.27 214.797 126.348 214.664 126.484C214.531 126.62 214.457 126.803 214.457 126.993C214.457 127.183 214.531 127.365 214.664 127.501C214.797 127.637 214.978 127.716 215.168 127.72H224.775C224.966 127.717 225.149 127.64 225.283 127.504C225.418 127.368 225.493 127.184 225.493 126.993C225.493 126.801 225.418 126.618 225.283 126.482C225.149 126.346 224.966 126.268 224.775 126.266Z" fill="#3F3D56"/>
<path d="M224.774 128.996H215.167C214.977 129.001 214.797 129.079 214.664 129.215C214.531 129.351 214.457 129.533 214.457 129.723C214.457 129.913 214.531 130.096 214.664 130.231C214.797 130.367 214.977 130.446 215.167 130.45H224.774C224.965 130.448 225.147 130.37 225.281 130.234C225.415 130.098 225.491 129.914 225.491 129.723C225.491 129.532 225.415 129.349 225.281 129.213C225.147 129.077 224.965 128.999 224.774 128.996Z" fill="#3F3D56"/>
<path d="M456.367 290.232C456.657 291.076 457.207 291.807 457.938 292.319C458.669 292.831 459.543 293.098 460.436 293.082L477.867 292.633C478.765 292.616 479.634 292.308 480.344 291.756C481.053 291.203 481.565 290.436 481.802 289.569L484.269 263.193C485.144 263.589 486.096 263.785 487.057 263.766C487.892 263.745 488.714 263.56 489.477 263.221C490.24 262.882 490.929 262.397 491.504 261.792C492.079 261.187 492.53 260.475 492.83 259.696C493.13 258.917 493.273 258.086 493.252 257.251C493.231 256.417 493.046 255.595 492.708 254.832C492.369 254.069 491.883 253.38 491.278 252.805C490.673 252.229 489.961 251.779 489.182 251.479C488.403 251.179 487.572 251.035 486.738 251.056C486.354 251.055 485.971 251.095 485.596 251.175C485.187 250.733 484.691 250.382 484.139 250.144C483.586 249.905 482.99 249.785 482.389 249.791L455.576 250.484C455.353 250.492 455.132 250.519 454.914 250.566C454.326 250.675 453.769 250.91 453.279 251.253C452.789 251.596 452.378 252.04 452.075 252.555C451.771 253.071 451.581 253.645 451.518 254.24C451.454 254.835 451.519 255.436 451.708 256.004L456.367 290.232ZM484.774 261.402L486.53 255.117C486.729 254.391 486.734 253.625 486.543 252.896C486.628 252.896 486.703 252.856 486.788 252.855C487.992 252.831 489.156 253.284 490.026 254.116C490.896 254.948 491.4 256.092 491.428 257.295C491.456 258.498 491.006 259.664 490.176 260.536C489.346 261.408 488.205 261.915 487.001 261.947C486.223 261.971 485.453 261.783 484.774 261.402Z" fill="#2F2E41"/>
<path d="M454.914 250.566C455.485 253.833 461.908 256.129 469.63 255.73C476.731 255.403 482.538 252.909 483.602 249.954C483.208 249.837 482.799 249.783 482.388 249.792L455.575 250.484C455.353 250.493 455.132 250.52 454.914 250.566Z" fill="#3F3D56"/>
<path d="M471.044 275.738C471.08 275.73 471.113 275.715 471.144 275.695L474.929 273.217C474.975 273.187 475.012 273.146 475.038 273.098C475.064 273.05 475.078 272.997 475.078 272.942C475.078 272.887 475.064 272.834 475.038 272.786C475.012 272.738 474.975 272.697 474.929 272.667L470.995 270.09C470.959 270.066 470.918 270.049 470.876 270.041C470.833 270.033 470.789 270.033 470.747 270.042C470.704 270.051 470.664 270.068 470.628 270.092C470.593 270.116 470.562 270.147 470.538 270.184C470.514 270.22 470.498 270.26 470.49 270.303C470.482 270.346 470.482 270.389 470.491 270.432C470.5 270.474 470.518 270.514 470.542 270.55C470.566 270.586 470.598 270.616 470.634 270.64L474.148 272.941L470.783 275.144C470.718 275.187 470.67 275.251 470.648 275.326C470.626 275.4 470.631 275.481 470.662 275.552C470.694 275.623 470.749 275.681 470.819 275.715C470.889 275.749 470.969 275.758 471.044 275.738Z" fill="#6C63FF"/>
<path d="M465.067 276.014C465.131 275.998 465.188 275.963 465.232 275.914C465.275 275.865 465.304 275.805 465.312 275.74C465.321 275.675 465.311 275.609 465.282 275.55C465.253 275.491 465.207 275.442 465.15 275.41L461.661 273.409L465.033 270.904C465.068 270.878 465.097 270.846 465.119 270.809C465.142 270.772 465.156 270.731 465.163 270.688C465.169 270.646 465.167 270.602 465.156 270.56C465.146 270.518 465.127 270.479 465.101 270.444C465.075 270.41 465.043 270.38 465.006 270.358C464.969 270.336 464.928 270.321 464.885 270.315C464.843 270.309 464.799 270.311 464.757 270.321C464.715 270.332 464.676 270.351 464.641 270.376L460.865 273.181C460.822 273.214 460.786 273.257 460.763 273.306C460.74 273.356 460.73 273.41 460.733 273.465C460.736 273.519 460.753 273.572 460.782 273.618C460.811 273.665 460.85 273.703 460.898 273.73L464.823 275.98C464.897 276.023 464.984 276.035 465.067 276.014Z" fill="#6C63FF"/>
<path d="M470.67 277.91C470.702 277.902 470.732 277.89 470.76 277.872C470.797 277.85 470.829 277.82 470.855 277.785C470.881 277.751 470.899 277.711 470.909 277.669C470.919 277.627 470.921 277.583 470.915 277.541C470.908 277.498 470.893 277.457 470.871 277.42L465.504 268.598C465.459 268.523 465.386 268.47 465.301 268.45C465.216 268.429 465.127 268.443 465.052 268.489C464.978 268.534 464.925 268.607 464.904 268.692C464.883 268.776 464.897 268.866 464.942 268.94L470.308 277.763C470.345 277.823 470.4 277.869 470.465 277.896C470.53 277.923 470.602 277.928 470.67 277.91Z" fill="#6C63FF"/>
<path d="M168.994 171.617H139.917C138.731 171.617 137.77 172.579 137.77 173.765V176.606C137.77 177.792 138.731 178.753 139.917 178.753H168.994C170.18 178.753 171.141 177.792 171.141 176.606V173.765C171.141 172.579 170.18 171.617 168.994 171.617Z" fill="#6C63FF"/>
<path d="M185.941 185.89H122.968C121.782 185.89 120.82 186.851 120.82 188.037V190.878C120.82 192.064 121.782 193.026 122.968 193.026H185.941C187.127 193.026 188.089 192.064 188.089 190.878V188.037C188.089 186.851 187.127 185.89 185.941 185.89Z" fill="#E6E6E6"/>
<path d="M185.941 200.162H122.968C121.782 200.162 120.82 201.124 120.82 202.31V205.151C120.82 206.337 121.782 207.298 122.968 207.298H185.941C187.127 207.298 188.089 206.337 188.089 205.151V202.31C188.089 201.124 187.127 200.162 185.941 200.162Z" fill="#E6E6E6"/>
<path d="M191.279 247.954L191.422 248.405L191.429 248.42L195.723 261.473L200.662 276.514L209.954 304.782L210.044 309.173V309.188L210.735 344.511L208.821 349.3L210.975 357.151C210.975 357.151 209.984 345.283 204.67 352.098C201.66 355.971 198.14 359.935 195.25 363.65C199.461 365.354 203.739 366.895 208.085 368.274C209.023 368.574 209.969 368.859 210.915 369.144C211.117 369.204 211.32 369.264 211.523 369.324C225.929 373.585 240.822 375.979 255.838 376.448C256.618 376.47 257.384 376.485 258.127 376.5C258.39 376.508 258.645 376.515 258.9 376.515C259.741 376.523 260.574 376.53 261.415 376.53C263.111 376.53 264.8 376.505 266.481 376.455C278.926 376.104 291.297 374.431 303.388 371.464C303.305 366.472 303.08 360.64 302.757 354.41C302.607 351.355 299.237 348.045 299.035 344.848C298.892 342.446 301.917 340.186 301.759 337.747C300.738 322.728 299.462 328.493 298.517 317.857C298.419 316.814 298.329 315.816 298.246 314.862C297.638 308.032 297.218 303.761 297.218 303.761L301.256 278.308L307.599 238.347L307.111 237.544L306.563 237.273L273.109 220.715L271.293 216.062C270.763 214.721 269.845 213.569 268.656 212.755C267.467 211.94 266.061 211.5 264.62 211.491L242.582 211.4C241.439 211.395 240.31 211.663 239.291 212.181C238.271 212.699 237.39 213.453 236.72 214.38L230.753 222.644L191.279 247.954Z" fill="#3F3D56"/>
<path d="M215.036 298.492L210.045 309.173L206.637 316.469L200.775 347.16L197.84 350.275L195.326 339.248L169.008 345.092C168.145 340.295 168.777 345.254 168.244 339.992C168.394 339.842 168.552 339.692 168.71 339.542C169.13 339.152 169.483 338.784 169.475 338.431C169.175 320.282 170.076 289.395 177.597 270.682C178.774 267.627 180.328 264.73 182.22 262.058C182.37 261.855 182.513 261.653 182.656 261.45C186.123 256.594 188.315 251.812 191.422 248.412V248.405C191.442 248.389 191.459 248.372 191.475 248.352C191.486 248.347 191.496 248.339 191.505 248.33L212.852 237.011L213.768 262.741L214.421 281.236L215.036 298.492Z" fill="#3F3D56"/>
<path d="M292.01 301.526L298.245 314.866L300.421 319.512L306.281 350.201L309.207 353.309L311.727 342.284L312.911 342.041L334.268 337.618L340.493 357.388C341.896 355.05 342.448 352.3 342.057 349.601C341.666 346.903 340.356 344.423 338.347 342.58C337.922 342.195 337.568 341.82 337.578 341.466C337.932 320.12 336.626 281.141 324.834 265.098C321.089 260.007 318.842 254.936 315.573 251.393C315.563 251.383 315.563 251.373 315.553 251.373L307.597 238.346L307.111 237.547L306.565 237.273L292.01 301.526Z" fill="#3F3D56"/>
<path d="M254.238 205.128C270.43 205.128 283.556 192.002 283.556 175.81C283.556 159.618 270.43 146.492 254.238 146.492C238.046 146.492 224.92 159.618 224.92 175.81C224.92 192.002 238.046 205.128 254.238 205.128Z" fill="#FFB6B6"/>
<path d="M293.864 155.332C293.637 155.089 293.363 154.895 293.059 154.76C292.755 154.626 292.427 154.554 292.094 154.549L292.535 153.325C292.679 152.94 292.718 152.523 292.647 152.117C292.577 151.712 292.401 151.333 292.135 151.018C291.87 150.703 291.526 150.465 291.139 150.327C290.751 150.189 290.334 150.156 289.929 150.233L288.324 150.542L288.475 149.469C288.533 149.07 288.486 148.662 288.339 148.287C288.192 147.911 287.949 147.58 287.635 147.326C287.321 147.073 286.947 146.905 286.548 146.84C286.15 146.775 285.741 146.815 285.363 146.956C285.019 147.091 284.649 147.148 284.28 147.122C283.911 147.096 283.553 146.987 283.231 146.805C282.908 146.628 282.628 146.382 282.41 146.085C282.192 145.789 282.041 145.448 281.968 145.087L281.409 142.39L281.349 142.245C278.625 137.705 273.388 134.402 266.979 133.191C261.275 132.105 255.425 132.658 249.786 133.178C247.549 133.389 245.023 133.625 242.917 134.915C241.128 136.02 239.614 138.231 239.923 140.462C234.364 138.758 228.402 142.159 225.448 146.449C221.948 151.555 221.375 157.951 221.283 162.951C221.033 174.782 223.474 184.46 228.521 191.724C228.889 192.251 228.981 193.35 229.712 193.718L229.56 193.475C230.376 193.883 231.205 194.541 230.896 195.245C230.008 197.271 235.91 201.752 240.068 203.232C247.655 205.937 257.741 205.706 264.834 204.733L265.084 203.055C267.644 202.706 269.447 202.041 269.953 201.002C270.848 200.239 271.611 199.554 272.276 198.923L272.283 198.916C272.296 198.903 272.322 198.883 272.335 198.87C275.539 195.797 276.283 194.047 276.619 191.382C276.941 188.77 276.369 186.119 275.783 183.73C288.113 185.638 270.927 170.597 282.415 167.689C282.547 167.648 282.681 167.615 282.817 167.59C283.152 167.511 283.488 167.432 283.81 167.34C285.364 166.918 286.852 166.283 288.232 165.452C291.443 163.497 292.502 160.905 294.16 157.984C294.399 157.568 294.5 157.086 294.446 156.609C294.393 156.132 294.189 155.685 293.864 155.332Z" fill="#2F2E41"/>
<path d="M357.931 303.613C357.924 304.764 357.911 306.376 357.858 308.37C357.852 308.646 357.845 308.929 357.839 309.219C357.753 312.884 357.668 315.956 357.529 319.371C357.523 319.608 357.516 319.838 357.503 320.075C357.319 324.839 357.029 330.386 356.529 339.17C355.602 355.395 353.983 341.4 352.358 347.092C352.279 347.375 352.193 347.71 352.114 348.105C351.868 349.537 351.453 350.935 350.877 352.27C350.015 352.783 349.127 353.277 348.252 353.77C345.758 355.158 343.225 356.494 340.672 357.764C339.238 358.475 337.797 359.172 336.349 359.843C336.119 359.948 335.895 360.054 335.672 360.152C328.259 363.581 320.619 366.496 312.807 368.877C311.281 369.338 309.761 369.785 308.221 370.2C306.616 370.647 305.01 371.068 303.385 371.463C291.295 374.431 278.923 376.105 266.479 376.457C264.801 376.51 263.11 376.529 261.413 376.529C260.571 376.529 259.742 376.523 258.899 376.516C258.643 376.516 258.386 376.51 258.13 376.503C257.386 376.483 256.616 376.47 255.84 376.45C240.824 375.982 225.931 373.587 211.525 369.325L210.913 369.147C209.966 368.857 209.025 368.574 208.084 368.272C203.741 366.897 199.462 365.357 195.247 363.653C192.03 362.357 188.849 360.966 185.706 359.481C185.678 359.474 185.651 359.46 185.627 359.442C184.969 359.139 184.305 358.823 183.647 358.501C183.561 358.455 183.469 358.409 183.377 358.363C180.923 357.165 178.495 355.911 176.093 354.599C174.073 349.96 171.231 349.072 169.468 344.993C168.954 343.781 168.583 342.513 168.362 341.216C168.362 341.203 168.356 341.19 168.356 341.17C168.54 343.618 167.573 336.827 168.349 341.144C168.343 341.065 168.336 340.979 168.329 340.88C168.31 340.644 168.283 340.354 168.244 339.992C165.987 317.957 166.132 292.756 165.151 271.991C165.086 270.648 165.018 269.363 164.947 268.135C164.928 267.727 164.901 267.326 164.875 266.931C164.921 266.812 164.974 266.687 165.033 266.569C165.046 266.535 165.061 266.502 165.079 266.47C165.098 266.429 165.12 266.39 165.145 266.352C165.158 266.332 165.178 266.306 165.191 266.286C165.2 266.263 165.211 266.241 165.224 266.22C165.283 266.128 165.349 266.029 165.421 265.937C165.454 265.898 165.48 265.865 165.513 265.832C165.536 265.798 165.562 265.768 165.592 265.74C165.612 265.708 165.637 265.68 165.665 265.654C165.691 265.628 165.717 265.595 165.75 265.562C165.764 265.542 165.782 265.524 165.803 265.51C165.855 265.45 165.912 265.395 165.974 265.345C166.209 265.129 166.459 264.931 166.724 264.753C166.816 264.694 166.915 264.635 167.007 264.569C167.67 264.172 168.368 263.837 169.093 263.569C169.343 263.476 169.593 263.391 169.862 263.299C169.961 263.273 170.053 263.24 170.152 263.207C170.297 263.161 170.441 263.115 170.593 263.082C171.343 262.858 172.152 262.667 173.027 262.49C173.133 262.47 173.244 262.45 173.356 262.424C173.514 262.391 173.679 262.365 173.843 262.338C174.067 262.299 174.297 262.259 174.527 262.22C176.482 261.911 178.699 261.68 181.147 261.529C181.377 261.516 181.607 261.503 181.838 261.489C182.107 261.476 182.377 261.463 182.653 261.45C182.884 261.437 183.121 261.43 183.357 261.424C183.588 261.41 183.825 261.404 184.068 261.397C184.733 261.378 185.417 261.358 186.114 261.345C188.101 261.305 190.194 261.318 192.391 261.364C193.411 261.391 194.451 261.417 195.517 261.463C195.589 261.463 195.655 261.47 195.721 261.47C196.649 261.503 197.583 261.542 198.543 261.595C199.215 261.628 199.892 261.661 200.57 261.7C201.208 261.739 201.853 261.779 202.504 261.825C203.011 261.851 203.518 261.891 204.031 261.924C204.465 261.957 204.899 261.989 205.334 262.016L205.926 262.055C206.248 262.082 206.571 262.101 206.9 262.134C207.623 262.193 208.347 262.253 209.084 262.312C209.815 262.378 210.558 262.443 211.302 262.509C212.045 262.575 212.795 262.647 213.545 262.72C213.624 262.726 213.697 262.733 213.769 262.74C214.453 262.812 215.138 262.878 215.828 262.95C215.986 262.963 216.151 262.976 216.309 262.996C216.967 263.062 217.639 263.14 218.304 263.21C218.508 263.232 218.711 263.254 218.915 263.276C219.436 263.333 219.949 263.382 220.474 263.444C221.164 263.523 221.869 263.595 222.553 263.687C223.086 263.746 223.619 263.805 224.152 263.871C224.987 263.97 225.836 264.075 226.685 264.187C227.007 264.227 227.33 264.266 227.652 264.312C230.073 264.615 232.521 264.95 235.008 265.299C238.778 265.832 242.608 266.411 246.464 267.036C250.326 267.661 254.21 268.321 258.116 269.017C259.103 269.194 260.09 269.372 261.084 269.556C261.531 269.642 261.979 269.727 262.426 269.813C263.189 269.951 263.952 270.096 264.716 270.24C265.479 270.385 266.242 270.53 267.005 270.681C267.913 270.859 268.828 271.037 269.736 271.214C275.717 272.399 281.665 273.662 287.468 274.984C288.422 275.202 289.377 275.425 290.324 275.642C292.219 276.083 294.096 276.531 295.956 276.985C296.47 277.103 296.976 277.228 297.483 277.353C298.746 277.669 300.009 277.985 301.253 278.307L301.47 278.366C302.385 278.59 303.28 278.82 304.174 279.057C306.286 279.61 308.363 280.169 310.405 280.735C311.761 281.11 313.101 281.49 314.426 281.873C316.406 282.446 318.347 283.025 320.235 283.61C320.703 283.755 321.17 283.9 321.63 284.038C323.012 284.466 324.374 284.9 325.697 285.334C326.749 285.676 327.776 286.025 328.789 286.374C329.802 286.723 330.796 287.071 331.77 287.42C332.395 287.644 333.013 287.881 333.632 288.104C334.52 288.433 335.395 288.762 336.251 289.091C336.514 289.19 336.77 289.295 337.027 289.394C337.191 289.466 337.349 289.526 337.507 289.591C337.816 289.716 338.132 289.835 338.435 289.96C338.744 290.078 339.047 290.203 339.35 290.335C339.646 290.453 339.948 290.578 340.238 290.703C340.534 290.822 340.823 290.947 341.113 291.078C341.356 291.177 341.593 291.282 341.824 291.388C342.291 291.592 342.758 291.796 343.212 292.006C343.436 292.111 343.659 292.21 343.883 292.315L344.396 292.552C344.469 292.592 344.541 292.625 344.613 292.658C344.778 292.737 344.949 292.822 345.113 292.901C345.495 293.079 345.87 293.269 346.239 293.447C346.732 293.697 347.212 293.947 347.673 294.191C348.14 294.441 348.594 294.691 349.028 294.934C349.101 294.974 349.167 295.013 349.239 295.053C349.338 295.105 349.436 295.164 349.535 295.217C349.871 295.408 350.193 295.605 350.515 295.796C351.147 296.184 351.746 296.566 352.305 296.948C352.43 297.033 352.549 297.119 352.674 297.198C353.088 297.494 353.483 297.783 353.851 298.079C353.851 298.086 353.851 298.086 353.858 298.086C353.983 298.178 354.101 298.277 354.22 298.369C354.318 298.461 354.424 298.54 354.522 298.632C354.865 298.928 355.18 299.211 355.47 299.5C355.567 299.59 355.659 299.684 355.746 299.783C355.785 299.815 355.82 299.85 355.852 299.889C355.983 300.02 356.102 300.152 356.213 300.283C356.231 300.302 356.246 300.321 356.259 300.343C356.417 300.527 356.562 300.711 356.7 300.895C356.766 300.987 356.839 301.08 356.898 301.172C356.977 301.284 357.056 301.402 357.121 301.514C357.181 301.606 357.233 301.705 357.286 301.797C357.426 302.034 357.544 302.283 357.641 302.54C357.715 302.715 357.775 302.895 357.819 303.08C357.869 303.255 357.906 303.433 357.931 303.613Z" fill="#2F2E41"/>
<path opacity="0.2" d="M357.932 303.613C357.925 304.764 357.912 306.376 357.859 308.37C357.853 308.646 357.839 308.929 357.833 309.219C357.767 312.015 357.668 315.469 357.53 319.371C357.524 319.608 357.517 319.838 357.504 320.075C357.32 324.839 357.03 330.386 356.53 339.17C355.602 355.395 353.984 341.4 352.359 347.091C347.845 344.315 342.897 341.407 337.607 338.419C336.653 337.88 335.69 337.338 334.718 336.794C324.138 330.892 312.321 324.707 299.984 318.582C299.497 318.338 299.004 318.095 298.517 317.858C270.257 303.889 239.411 290.302 214.421 281.235C209.598 279.485 204.992 277.906 200.663 276.517C191.543 273.602 183.661 271.563 177.594 270.681C171.278 269.76 166.915 270.089 165.152 271.99C165.086 270.648 165.018 269.363 164.948 268.135C164.922 267.727 164.895 267.325 164.869 266.931C164.91 266.822 164.963 266.719 165.014 266.615C165.021 266.599 165.026 266.584 165.034 266.569C165.046 266.535 165.062 266.502 165.08 266.47C165.099 266.429 165.121 266.39 165.145 266.352C165.167 266.305 165.193 266.261 165.224 266.22C165.284 266.128 165.349 266.029 165.422 265.937C165.475 265.868 165.532 265.802 165.593 265.74C165.613 265.708 165.637 265.679 165.665 265.654C165.692 265.628 165.718 265.595 165.751 265.562C165.765 265.541 165.783 265.523 165.803 265.509C165.856 265.45 165.913 265.395 165.975 265.345C166.209 265.129 166.46 264.931 166.725 264.753C166.817 264.694 166.915 264.634 167.008 264.568C167.671 264.172 168.369 263.837 169.093 263.568C169.343 263.476 169.593 263.391 169.863 263.299C169.962 263.272 170.054 263.239 170.153 263.207C170.297 263.16 170.442 263.114 170.594 263.082C171.344 262.858 172.153 262.667 173.028 262.489C173.291 262.437 173.568 262.384 173.844 262.338C174.068 262.299 174.298 262.259 174.528 262.22C176.482 261.91 178.7 261.68 181.147 261.529C181.378 261.516 181.608 261.502 181.838 261.489C182.108 261.476 182.378 261.463 182.654 261.45C182.884 261.437 183.121 261.43 183.358 261.423C183.588 261.41 183.825 261.404 184.069 261.397C184.733 261.377 185.418 261.358 186.115 261.344C188.102 261.312 190.195 261.325 192.392 261.371C193.412 261.39 194.452 261.423 195.518 261.469C195.583 261.469 195.656 261.476 195.722 261.476C196.649 261.502 197.59 261.548 198.544 261.594C199.215 261.627 199.893 261.66 200.571 261.7C201.209 261.739 201.854 261.779 202.505 261.825C203.012 261.851 203.518 261.891 204.032 261.923C204.466 261.956 204.9 261.989 205.334 262.016C205.854 262.055 206.374 262.095 206.9 262.134C207.624 262.193 208.348 262.252 209.085 262.312C209.815 262.377 210.559 262.443 211.302 262.509C212.046 262.575 212.796 262.647 213.546 262.72C213.625 262.726 213.697 262.733 213.77 262.739C214.454 262.812 215.138 262.878 215.829 262.95C219.659 263.338 223.6 263.792 227.653 264.312C230.074 264.621 232.526 264.952 235.009 265.305C238.779 265.838 242.609 266.417 246.464 267.036C250.327 267.661 254.211 268.321 258.117 269.016C259.104 269.194 260.091 269.372 261.084 269.556C262.295 269.78 263.506 270.008 264.717 270.24C265.48 270.385 266.243 270.53 267.006 270.681C267.914 270.859 268.829 271.036 269.737 271.214C275.718 272.398 281.666 273.662 287.469 274.984C288.423 275.201 289.377 275.425 290.325 275.642C292.22 276.083 294.097 276.53 295.957 276.984C296.47 277.109 296.977 277.234 297.484 277.359C298.753 277.675 300.01 277.991 301.254 278.307V278.314C301.326 278.327 301.398 278.346 301.471 278.366C302.379 278.596 303.28 278.827 304.175 279.064C306.287 279.616 308.364 280.173 310.406 280.735C311.762 281.116 313.104 281.492 314.426 281.873C316.407 282.452 318.348 283.031 320.236 283.61C320.703 283.755 321.171 283.9 321.631 284.038C323.013 284.472 324.368 284.904 325.697 285.334C326.75 285.676 327.777 286.025 328.79 286.374C329.803 286.722 330.797 287.071 331.771 287.42C332.402 287.644 333.021 287.874 333.633 288.098C334.527 288.427 335.396 288.756 336.251 289.091C336.514 289.19 336.771 289.295 337.028 289.394C337.508 289.578 337.975 289.769 338.436 289.96C338.745 290.078 339.048 290.203 339.35 290.335C339.646 290.453 339.949 290.578 340.239 290.703C340.535 290.822 340.824 290.947 341.114 291.078C341.357 291.177 341.594 291.282 341.824 291.387C342.292 291.591 342.759 291.795 343.213 292.006C343.436 292.111 343.66 292.21 343.884 292.315L344.397 292.552C344.469 292.592 344.542 292.624 344.614 292.657C345.173 292.921 345.713 293.184 346.239 293.447C346.733 293.697 347.213 293.947 347.674 294.19C348.22 294.48 348.74 294.763 349.24 295.052C349.338 295.105 349.437 295.164 349.536 295.217C349.871 295.408 350.194 295.605 350.516 295.796C351.148 296.184 351.747 296.566 352.306 296.947C352.859 297.329 353.372 297.704 353.852 298.079C353.852 298.086 353.852 298.086 353.859 298.086C354.089 298.27 354.313 298.454 354.523 298.632C354.865 298.928 355.181 299.211 355.471 299.5C355.568 299.59 355.66 299.684 355.747 299.783C355.785 299.815 355.821 299.85 355.852 299.888C355.991 300.04 356.129 300.191 356.26 300.342C356.418 300.527 356.563 300.711 356.701 300.895C356.767 300.987 356.839 301.079 356.899 301.171C356.978 301.283 357.056 301.402 357.122 301.514C357.181 301.606 357.234 301.704 357.287 301.797C357.426 302.034 357.545 302.282 357.642 302.54C357.714 302.715 357.773 302.896 357.82 303.08C357.87 303.254 357.907 303.433 357.932 303.613Z" fill="black"/>
</g>
<defs>
<clipPath id="clip0_2982_19133">
<rect width="517.706" height="376.53" fill="white"/>
</clipPath>
</defs>
</svg>
