<svg xmlns="http://www.w3.org/2000/svg" width="24576" height="24576" version="1.0" viewBox="0 0 18432 18432"><path d="M10224 936h-288l-288 144-288 144-288 432-360 360-144 360-216 360v1152l72 504 72 432 288 864 216 792 144 288 144 288v72l72 144-216 72-144 72h360v-144l72-72-216-504-216-576-216-864-288-864-72-720v-792l216-504 288-432 360-432 432-432 216-72h288l72 72 72 72v-72l72-72 144 72 216 72 216 216 288 216 144 288 144 360 144 1224 216 1296v648l72 648h72v-360l72-288 144 144 144 144h-144l-144-72v360h72v72l144-72h144v-216l-72-288 72 144 72 144v-144l72-144-72 288v216l72-72 72-144 72 144v72l144-216 72-144-72-72-72-144v144l72 72-72 72-72 72v-216l-72-216-144-360-72-360 72 288v288h-144v-432l-72-144-72-144 72 360v360l-72-72-72-72v-216l-72-288v576h-72l-72 72v-648l-72-216v-288h144v432l144-144 144-144v-216l-72-216v432h-144l-72-216v-648l72-432-72-216-72-216 72-648v-648l72 360 72 288v-648h-144l72-72v-72h576l288 144 288 144 144 144 144 216 144 360 216 432 144 720 72 792v1944l-144 72-72 72v144l144-72h72v216l72-144 72-144h-144l72-936V4104l-72-720-72-720-144-432-144-432-216-288-216-288-360-144-288-144h-648l-72 432-72 360v2016l-72-72-72-720-144-792-144-288-144-288-216-216-144-216-288-144-216-72zm2232 4896v72h-72v-72z"/><path d="M12384 1080h-72v144h72zm144 72h-72v72h72zm144 0h-72v72h72zm-2736 72h-72v72h72zm864 0h-72v216l72-72zm2088 0h-72v216l72-72zm-1872 216h-72v144h72zm-504 144h-72v72h72zm720 288h-72v72h72zm-2088 144h-72v72h72zm2160 0h-72v72h72zm936 144-72-216v792l72-144zm-1512 504-72-576v864l144 504 144 504v72h-72l-72-72-72-72 72-72v-144l-72 72-72 72 72 360v288h216v288l-72-72v-144l-72 72-72 72-72-72-72-144v360h144v288l-72-72-144-144v-216l-72-216-72-72v-72h72l144 72v-360h-216v-72l-72-144 72 216v216h-72l-72-72 72 360 144 288 72 288 144 288v72h-72l-72-144-144-216-72-144v-216l-72-72h-72l216 504 144 504v72l-144-216-144-288-72-288-72-216-72 72-72 72h-144l-216-72v144l144 360 144 288v72h-144l-72-360-144-360v-360l72-144-72 144-72 72h-144v-504l-72 216v144l-144-72-72-72 72 216 72 216h144l216 720 216 720 72-72h72l72 216 72 216h72l-72-72v-72h72l144 72-72-144v-216l72 144 72 72 72-72v-72l72 72 72 72v-432l144 144 72 72v-72l-72-72h144v144l72-72h72v-216l-72-144 144-72h216v-288l72 144 72 72v-216l72 144 72 72-72-864v-936l-72-432-72-432-144 72h-72v-216h144v-504h-72l-144-72v144l-72-72-72-144v1080h-72v-72zm288-216v72h-72v-72zm0 144v720l-72-144-72-216 72-216v-144zm-72 792v72h-72v-72zm144 360v288l-72 72v-504zm-216 576v72h-72v-72zm216 216v72h-72v-72zm0 144v144l-72 72v-216zm-936 720v72h-72v-72zm-216 432v72h-72v-72zm144 72h72v144h-216l72-144v-72z"/><path d="M10368 2232h-72v720h72zm144 72-72-144zv144h72v-72zm-1656 0h-72v72h72zm792 0h-72v72l72 144 72 144v-288zm216 0v288l72 144 72 144-72-288v-288zm288 216-72-144v432l72-72zm432 0h-72v144h72zm2232 0h-72v72h72zm-3312 72h-72v72h72zm2880 72h-72v144h72zm-3024 72v288l72 144 72 144-72-288v-288zm432 0h-72v216l72-72zm3024 0h-72v216l72-72zm360 144-72-144v360l72-72zm-3960 0h-72v72h72zm1008 144-144-144v144l216 144 144 144v-216h-72l-72 72zm360-72-72-144v360l72-72zm-1512 0h-72v144h72zm3744 72h-72v216l72-72zm-3024 72h-72v72h-72v360l72-72v-72h72l72 72-72-216zm144 0h-72l72 144v144l72 72h72l-72-144v-144zm-720 72h-72v144h72zm-144 72h-72v144h72zm1584 0h-72v144h72zm1584 72-72-144v360l72-72zm-3672 0h-72v216l72-72zm3960 0h-72v216l72-72zm-3240 72h-72v144h72zm288 0h-72v72h72zm864 0v144l144 144 72 72-72-144-72-216zm-1296 288-144-288v144l72 360 144 288v-288zm1152-144-72-144v144l72 144v144h72l144 72-72-144v-144zm2880-72h-72v216l72-72zm-3096 144-72-144v144l72 144 72 144v-216zm-720 0h-72v216l72-72zm504 144h-72v72h72zm72 144h-72v144l-72 72 72 144 72 144h72v-216l-72-216zm0 216v72h-72v-72zm-360-144h-72l72 216 72 144h72v-72l-72-144v-144zm3096 0h-72v216l72-72zm-2448 72h-72v72h72zm3384 144-72-144v504l72-72zm-576 72-72-144v432l72-72zm-4392 0h-72v72h72zm792 0h-72v72h72zm3024 72h-72v144h72zm-2952 72h-72v72h72zm288 0h-72v72h72zm360 72h-72v72h72zm-432 144v144h72l72 72-72-72v-144zm288 0h-72v72h72zm-864 360v216h72l72 72-72-144v-144zm3672 0h-72v72h72zm144 72h-72v72h72zm0 144h-72v72h72zm504 144-72-144v360l72-72zm-288 72-72-144v432l72-72zm576 0-72-144v504l72-72zm-5904 360-216-72v144l72 72-216-72h-216v72l72 72 360 216 432 144-216-144-144-144 144-72 144-72h648l-72-144v-72h-288l-144 72-72 72zm1512-72h-72v216l72-72zm1728 72h-72v216l72-72zm216 0h-72v216l72-72zm1800 0h-72v216l72-72zm216 72-72-72v144l-72 144 72-72 72-72zm216-72h-72v216l72-72zm144 144h-72v216l72-72zm-6552 72h-72l72 72v72h72v-144zm6768 0h-72v144l-72 72 72-72 72-72zm-7056 72h-72v72l72 72 144 72 216 72-144-144-144-144zm5040 72v-72l-216 72-216 72h72l72 72 72-72h72v72l-72 72h216v-72l72-144zm-5400 0h-72l72 72 144 72h72v-72l-72-72z"/><path d="M8496 6120h-144l72 72h144l144-72zm5976 0h-72v72h-72v216l72-72 72-144zm-3168 144-144-72 72 72 144 144h144v-72zm-3744 0h-72v72h72zm-1296 72h-72l72 72v72h144v-72l-72-72zm1080 0h-144l72 72 216 72 216 144 72-144 72-72h-144l-72-72 72 72v72h-144l-72-72zm936 0h-72v144h360l-144-72-72-72zm2880 72-144-72 72 72 144 144h144v-72zm3528-72h-72l-72 72-72 144h144l-72 72v144h144v-144l72-72h-144v-144zm-7776 72h-72l144 72 216 144h144l216 72-288-144-288-144zm1944 144-72-144v216l72 72h72l72-72zm2016-72-144-72 72 144 144 72h72v-72zm-4824 72-288-72 72 144 144 72h-216l-216-72 72 72 144 144-144 72-72 144h-288l-216-72v144h288v72l-72 72h-288v144l144 72 216 72 144-72 216-72 72 72v72h288l-216-144-216-144h216l144 144 216 72-144-144-144-144h-504l72-72h360v-144h216l72 72 72 144h144l-72-144-144-144v-144l72-72 72-72 288 144 288 144h144l-360-144-288-216zm720 0-144-72 72 72 144 144h144v-72zm3096 0-72-144v360h72l72 72v-144zm1296 72h-72v72h144v-72zm-4032 72h-72v72h72zm1584 0h-72l72 144 72 72h72v-144l-72-72zm6120 0h-72l-72 72-72 144v72h72l72-144 72-72zm-864 72h-72l-72 144-72 144h72l72-144z"/><path d="M5328 6840h-72v72h144l72 72-72-72v-72zm1008 0h-72l72 144 72 144h144l-72-144-72-144zm7776 0h-72l-72 144-72 144h144l-72 144v144h72l72-72v-144l72-144-72 72h-72v-144zm-7056 72h-72v72h72zm7704 216h-72v504l72 504 72 144 72 144 288 288 216 288v432h144v-360l-72-360-72-72-72-72-72-504-144-576-144-144-72-216zm72 144h72l72 216 72 144-72 72-72 72h-72l-72-72v-432zm-6768-72h-72l72 72h144v-72zm-1440 144h-72v72h144v-72zm7560 0-72 144-72 144h144v-144l72-144zm-9432 144h-72v144h144v-144zm1728 72h-72v72h144v-72zm7848 0h-72l-72 144-72 216h144l72-144zm-9216 72h-72l72 72v72h144v-72l-72-72zm3960 0h-144l72 144v144l144-72h144l-72-144v-72zm1224 72-144-72v72l216 144 288 144-144-72-72-144zm144-72 72 72v72h72v-72l-72-72zm1152 0h-144l-144 72h-72l-144 144-144 72v792l144 360 144 360 288 72 288 72h216l288-144 288-72 72-144 72-144-144-432-72-432-144-216-144-144-216-144-216-72zm720 504 144 144v216h-144v72l72 144h-144v72l72 72h-288l72-144v-144l-72-72h-72v-288l72-144 144-144zm0 864v72h-72v-72zM4896 7776h-72v144h360l-144-72-72-72zm3888 0h-72v72h144v-72zm1440 72-144-72v72l216 72 144 144v-72l-72-72zm-5616 0h-144v144h144l72-72 144-72zm720 0h-144l72 72h144l216 72 216 72-144-144-144-72zm936 72h-216l72 72h216l144-72zm2448 72h-72v72l-72 144h144v-144l72-72zm216 0h-72v144h72v72l144-72h72l-72-72v-72zm1152 0 144 144 144 216h72l-144-216-144-144zm-4032 72h-144v72h144l216 72-72-72v-72zm-1584 72h-72l72 72h144v-72zm504 0h-216l288 72 288 72h360l-216-72-216-72zm1872 0h-72v72h144v-72zm7632 72h-72v144l-72 72v72l72-72 72-144zm-6696 72h-72l72 72h144v-72zm1080 0h-288v144l144-72h144v144h-216l72 72h72l216-72 216-144v-72zm576 0h-72v72h72zm-5040 72h-144v216h-144l-72 72h360v-72h-72l72-144 72-72zm720 0h-72l-288 72-216 72h360l72 72 72 72h216l216-72h-504v-144l288 72h288l-144-72-144-72zm936 0h-216l72 72h288l144-72zm3528 0h-72v72h72zm1008 0h-72v72h72zm4032 0h-72v144l-72 72 72-72 72-72zm-7632 72h-72v72h72zm936 0h-144l-216 72-144 72h288l144-72 216-72zm6840 72h-72v72h72zm-6768 72h-72l72 72h144v-72zm1152 0h-72l-72 144-144 144h144l144-144 72-144zm504 0h-72v72h72zm-1944 72h-216l72 72h216l144-72zm6984 0h-72v144h72zm-9504 72h-216v144l-72 72h216l288-72-72-72v-72zm864 0-288 72-216 72h504l72-72v-72zm8784 0h-72v144h72zm-10584 72h-144v72l-72 72h144l72-72 144-72zm288 0h-72v144h144v-144zm3456 0h-72l72 72h144v-72zm1296 0h-72l-72 72v288l72 144 144-144 144-144h-144l-144 72 72-72 72-72v-144zm360 0h-72v72h72zm-1944 72h-144l72 72h144l144-72zm2088 0h-72v72h144v-72zm5256 0h-72l-72 72v72h72l72-72zm-288 72h-72v72h72zm-10296 72h-144l72 72h144l144-72zm3456 0h-72v72h144v-72zm216 0h-72v72h72zm6408 0h-72v144h72zm-9360 72h-72v72h144v-72zm3744 0h-72v72l-72 72 72-72h144v-72zm864 0h-72v72h144v-72zm5112 0h-72v72h72zm-10872 72h-72l72 72h144v-72zm936 0h-72l-360 72-288 72h504v216l72 216h72l144-72h72l144-72-72-72-72-72h216v-216l-216 72h-216l72-72 144-72zm792 0h-72l-72 72v72h72l72-72zm2448 72h-216l72 72h216l144-72zm6408 0h-72v144h72zm-7776 72h-72v72h144v-72zm1080 0h-72v72h72zm1008 0h-72l-72 72v72h72l72-72zm504 0h-72l-72 144-144 144v216h144l72-144v-144l72-72v-72l72-72zm288 0h-72v72h144v-72zm-3888 72h-72v72h72zm4176 0h-72v72h144v-72zm4752 0h-72v72h72zm216 0h-72v72h72zm-10944 72h-144v72l-72 72h144l72-72 144-72zm2952 0-144 72-144 72h216l72-72zm1224 0h-144v72l-72 72 216-72h144v-72z"/><path d="M4392 9504h-144v72l-72 72h144l72-72 144-72zm3456 0h-72v72h144v-72zm1152 0h-72v144h72zm6120 0h-72v144l-72 144v72h72l72-144zm432 0h-72v72l-72 72h144zm-8928 72h-72v72h72zm720 0h-72v72h144v-72zm1152 0h-72l-216 72-216 72h360l144-72 144-72zm-1440 72h-72l-144 72-72 72h144l72-72 144-72zm2952 0h-144l72 72h144l144-72zm-5832 72h-144l-216 72-144 144h72l288-72 288-144zm216 0h-72l72 72v72h144v-144z"/><path d="M5112 9720h-216v72h-72l72 216 72 144h144v144h-72l-72-72-216 144-216 144h-144l144-72 144-72 72-144 72-72h-216v72l-72 72h-504l72-72h72l-72-144v-72h216v72l-72 72h72l72 72 72-72 144-144h-216l-216-72-144 72h-144l-144 144-144 144v72l144-72 72-72v216l-144 144-144 72h216v144l-144 72-144 72v144l144-72 144-72v144l72 72h-360v144l-72 72 72 72v72h-72l-72 72 72 72v72l144-72 72-144-72 216-72 144 72 72 72 72-72 144v144h144v72l-72 144h72l144-72 216-72-216 144-144 216 72 72 72 72-72 144v72h72l216-144 216-72-216 144-144 144 72 288 72 216 144 216 216 216-72 72-72 144h-504l-504 72h1152v-144h144l-72 72v144h288v216h-144l-144 72h-936l360 72 360 72h-216l-144 72h1152v-144h-216l-216 72v-144h360l144 72h144v216h-360l-360 72h-360l-360 72h720l720-72h72l144-72v216h-432l-360 72h1008v-144h144v216h-432v72h360l216 72 144-72 144-72 72 144v144l144-72h72v144H5472l-1008 72h2088l72-144 72-144h144v72l-72 144 216 72 216 72h360l-648 72-576 72h1584l-144-72-144-72h216l144-72 72 72 72 72 72-72 144-72 216 72 216 72v-144h288l360 72v144h-504l-504 72h1872v-72l-72-72h-648l72-72h72l144-144 144-72v216h144v-216h144v216l72-72 144-144h144v144l144-72 72-144 72 144v72h288l72-144 144-72 72-72 72 144 144 72v-72l72-72h144l144-72v216h144v-216l72-72h144v216h144v-144l72-144h72l144 72v-144l72-216 72 144v72l144-144 72-144 72 72h144l-72-144v-144h144v72l72 72v-216h216v144h144v-216l-72-144h144l72 72 72 72-72-216v-216l72 144 144 144v-144l-72-216h144l72 72 72 72v-144l-72-72h-72v-144h216v72l72 72h72v-72l-72-72-72-144v-72l72-144 144 72h144l-144-72-72-72 72-144v-72l144 72h144l-72-72-72-144v-72l72-72h-216v-144h144l144 72v-144h-216v-144h288v-72l72-72h-72l-72-72h144l-72-216v-144l72-72 144-72h-216v-144h288l-144-72-72-72-72 72h-72l-72-72v-72h72l72 72v-144l-144-72h-72l-72 72-72 144h-144v-216l72-144 288-360 360-288h144l-144-144-144-72-216 216-288 216-216-144-216-216h-216v144l144 216 216 144v432l72 360h-144l-72-72v216l-72-144-72-216-72 216-72 144v-144l-72-216-72 216v216h-144v-288h-72l-216 216-144 144v-216h-288v216h-144v-432l-72 144v72l-72 144v72l-144-216-72-216v288h-144v-360l-72 144v144h-144v-144l-72-216v432l-72-72h-72v-360h-144v288h-216v-144l72-72 72-144v-144l-144 216-72 144h-144v-144l72-144h-144v72l-72 144h-144l72-216v-216l-144 144-72 144-72-72v-72l-72-144-144-72-72 72-144 72v-360l-72 72-144 72v-72h-72l144-144 72-144h-144l-144 216-216 216h-144l72-72 144-144 144-216 144-216h-144l-72 72-72 72v-144l72-144h-144v72l-72 72h-72v-72l72-72 72-72v-144l-144 72h-72l72-72v-144h-72l-144 144-72 72v-144l144-144 144-144h-144l-72 72-72 144-72 144h-216l-72 144-72 72 72-72 144-72h72l72 72v288h144l216-72-216 144-216 144v144l144-72 216-144v-72l72-72v288h72l72-72-72 72v144h-144v-144l-144 72-144 72v144l72-72 72-72h144l-72 72-72 72v144l144-72 72-72v144h-72l-72 72 72 144v72l72-72 72-72v-144l72-72 144-72 144-72v72l-144 288-216 216v144l72-72 144-144 72-144 72-144v72l72 72-144 216-72 216 72 72h72l-72 360v288l72-144 72-144h72l-72 432-72 432h-144v144l72 144h-144l-72-72-72-72-72 216-144 288h-144l72 144v216h-144v-360l-72-288 72-216 72-216-144 144-72 144v432l72 360h-144l-72 72v216l-72 72h-72v-216l72-216h-144v144l-72 216h-144v-288l72-288h216v-72l-72-144 144-72 72-144v-216l72-216-72 216-144 144-216 288-216 216h-144l-72 216-72 216-72 72h-72l144-216 72-288v-216h288l72-72-72-144v-72h-288l-216 72-144 72h-144v-72l72-144-72 72h-144l-72-72-72-144 144-144 72-216v-288l-144 288-144 216 72 72v72h-72l-144-72v72h-72v288l-72 216 72-72 144-144v216l-72 72-144 72-72-72-144-144 72-216 72-216v-288l-144 432-144 360v144l144-72h144l-216 144-144 144-72 216-72 216-72-72v-72l72-216 144-216v-288l-216 360-144 288h-72v-72l144-288 144-288v-144l-216 216-144 216 72-144 72-216v-144l-72 72-144 72v-72h-72l72-144v-72h-144l-72 144-144 216h-360v-144h216l144-144 144-144v-144h360l-72 144v144l72-72h144v216h288l72-288 72-216-72-72-72 144v144h-144l72-144 72-216h-72v-72l216-288 216-360h-72l-72-72-144 72-144 72-144 72h-72v-216l-72-216h144v-72h-72l-144 72-72 72h-72v-72l216-144 144-144h-144l-144 72-144 144v-72h-72l-144 288-216 288h-72l72-144v-144h-144l72-144v-144l144-144 216-144h-144l-72 72v-144l72-72 144-72-216 72-144 144v216l-144-72-72-144v-144l216-144 216-144h-144l-72 72-72 144h-144l144-216 216-144-144 72-144 72-72-72h-72l72-72 72-72 72-72 72-144-216 72h-288l-216 72-216 144 72-72v-144l144-72h144l72-72h72l216-72 288-144h-360l144-72 144-72h-432l72-72h144v-216zm72 72v72h-72v-72zm-1008 576h216l-144 72h-216l-72-72zm0 144h72v72l-72 72h-288l72-72 144-72zm1080 72h72v72h-144v-72zm-216 72h72v216h-144l-72 72h-216v-144l144-72zm-432 216 72 144v72h-72l-72-72h-144l72-144v-144zm-432-72h72v72h-144v-72zm-144 72v72h-72v-72zm1008 144h72v72l-144 72-216 144v-216h144zm-504 216v72h-72v-72zm144 0v72l-72 72v144l-72-72h-72l72-72zm-1008 72v144h-144l72-72v-72zm504 0h216l-144 72-72 72h-288l72-72v-72zm792 72h72l-72 72-72 72h-72v-144l72-72zm5544 0h72v72l-144 288-144 216v-144l72-216 72-216zm-6696 72v72h-72v-72zm1296 72h72v144l-216 72-144 72-72 72h-72l144-144 216-216zm5616 0h144l-144 72h-72v216l-144 144-72 72 72-144 72-216 72-72v-72zm-6408 72v72h-72v-72zm6552 72v72l-144 216-72 288h-72v-72l144-216 72-288zm-6336 72h72v72h-144v-72zm5616 0v72h-72v-72zm-4968 72h72l-144 72-72 144h-144l72-144 72-72zm-1512 72v72h-72v-72zm216 0v72h-72v-72zm2232 0-72 144v72l72-72h72v72l-72 72-72 144v144h72l72-72-72 144v144l-72 72h-72l72-144v-216l-72 144-72 72v-144l-72-144v-144l72 144 72 72v-144l72-72-72-72h-72l72-144 72-72zm5688 72v72h-72v-72zm1800 0v72h-72v-72zm1296 0v72h-72v-72zm-9720 72h72v72l-72 72h-144v-144zm9432 72 72 144v216l-72-72-72-144v-288zm-10656 72-72 72-72 72h-144v-144h144l144-72zm1008-72v72h-72v-72zm6624 72v144l-72 72v-360zm360 0v144l-72 72v-360zm1656-72v144l-72 72v-216zm720 0v144h-72v-144zm576 72h72v144h-72v-72l-72-72zm-10296 72v144h-72v-144zm648 0h72v72h72l-144 144-72 72h-216l72-72v-72l72 72h72v-216zm288 0h72v72h-144v-72zm720 0v72h-72v-72zm6624 0h72v504h-72v-288l-72-216zm-1152 72v72h-72v-72zm2664 0v72h-72v-72zm-8856 144-72 144-144 72-72-72 72-144 144-72zm-864 0v72h-72v-72zm1944 0v72h-72v-72zm4104 72v144l-72 72h-72v360l72-144v-144h72l72-72v-288h144l-72 72v72l144 144 144 144-72 216v288h72l72-72v216h-216l-288 72v-360l-72 216-72 144h-72v-216l72-216-144 72h-72v-216l72-216 144-72 72-72v-288zm2736-72v144h-72v-144zm1440 0v72h-72v-72zm-10512 72v72h-72v-72zm1296 0h72v144l72 144-216 144-144 144-72-72 72-72 144-144v-72l-144 72h-72l72-144 144-144zm6264 0v144h-72v-144zm-7200 72h72v72h-144v-72zm1656 144 144 144-72 72v72l-72-72v-144l-144 72h-72l72-144 72-144zm4824-144v144h-72v-144zm144 0h72v144h-72v-72l-72-72zm-7416 72v144h-144l72-72v-72zm8712 0h72v144h-216l72-72v-72zm-8064 72v72h-72v-72zm288 0v144l-432 360-360 288 72-144 72-144 288-216 288-288zm5400 0h72v144l-72 144-72 72v-360zm4464 0h72v72h-144v-72zm-576 72h72v144h-72l-72 72v-216zm216 0 144 72v216l-72-72v-144h-72l-72-72zm-2952 144v144h-72v-144zm144 0 72 72v144l-72-72h-72v-144zm2016 72 144 144v144l-144-144-144-72v-144zm-2376 72v72h-72v-72zm1800 0 72 72v144l-72-72h-72v-144zm-2808 144 72 72-72 216v288h-72l-72-72h-144l-144-72v-144l144 72 72 72 72-72 72-144v-288zm3240-72v72h-72v-72zm-1080 72v72h-72v-72zm144 0v72h-72v-72zm1800 0h72l72 72 72 144h-216zm-2736 144 144 144-72 216v144l-72-144-72-144v-288zm1728-72v72h-72v-72zm-5184 72h72v216l-144 72-144 72v-216l72-72 72-72zm2304 0v144h-72v-144zm-2952 216v216l-72 72h-72l-72-72 72-144 72-144zm3888 0v72h-72v-72zm720 0v72h-72v-72zm2088 0 72 72v216l-72-72-72-144v-72zm-9864 72v72h-72v-72zm3312 0h72v144l-72 144-72 144v-72l-72-72 72-144v-144zm2952 0h144v144l144-72h72v144h-72l-72 72-144-144-144-144zm-3456 144 72 72-72 144-144 72v-288h72v-72zm-1152 0v144h-144l72-72v-72zm5184 0v144h-72v-144zm288 0v144l-72 72v-216zm504 0h72v72h-144v-72zm-5832 144h72v72l-144 288-144 216h-72v-72l144-216zm1224 72 72 72v144l-72-72h-72v-288zm648-72h72v144h-144v-144zm648 0v72h-72v-72zm1152 72 72 72 72 72h144v-72l72-144v216l72-72h72l72 72 72 72v144h-72l-144-72v144l-72-144-72-144v216l-72-72h-144v144l-72 144v-360h-144l72-144v-144zm2160-72v144h-72v-144zm-288 72h72l72 72v72h-72v-72zm-4752 72v72l-72 144-72 144h-72v-72l72-144 72-144zm1584 0h72v216l-72 72h-144v-144l72-144zm3672 0v144h-72v-144zm360 0v144h-72v-144zm-4536 72v72h-72v-72zm5544 0v72h-72v-72zm-7200 72v72l-72 144-72 144h-144l144-216 72-144zm4320 0 144 72v432h-144v-360l-72 144-72 72v-360zm-3456 72v144h-144l72-72v-72zm3888 72v72l144-72h144v144l-72 144-72 72v-216h-72l-72 72-72-72-72-72 72-72v-72zm576 72v144l72 72h144l-72 216v144l-72 72h-72l-72-288v-288l-72 72-72 72v-216l72-72 144-72zm-2448-72v144h-72v-144zm-2304 72h72v72h-144v-72zm1800 0v72h-72v-72zm-1080 72v72h-72v-72zm4680 72h72v216h-216v-72l-72-72h72v-72zm360 0v72h-72v-72zm288 0h72v144l72 72-72-72h-72zm-5256 72h72v144h144l144 72h-288l-216-72v-72h72v-72zm4320 0v144h-72v-144zm-3456 72h72v72h-144v-72zm1512 0v144h-72v-144zm648 72h72l-72 72v144h-72v-216zm288 72h72v360h-144v-216l-72-144zm432 0h72v144h-72l-72 72v-216zm-1368 144v72h-72v-72zm648 144v72h-72v-72zm-4680 72v144h-144l72-72v-72zm3600 0h72v144h-144v-144zm864 0v72h-72v-72zm-3384 432v72h-72v-72z"/><path d="M10872 12816h-72l-72 144v216l72 144 144 72v-216l72-144v-144l-72 144-144 144 72-144zM5688 9720h-72v72h144v-72zm936 72h-72v72h144v-72zm2016 0h-72l-216 72-144 72h288l72-72 144-72zm6984 0-144 72-72 72 72 72 72-72zm-8568 72-144 72-72 72h144l72-72zm2016 0h-72v72l-72 72h144l72-72v-72zm-3384 72h-72v144l144-72h216l-144 72-144 144 72 144 72 216 216-144 288-72v-144l-144 72-144 72h-72l144-144 144-144-216-72-216-72zm4464 0h-72v72h72zm-3456 72h-72v72h144v-72zm2016 0h-72l-288 144-288 72 216-72h288l72-72 144-72zm3024 0h-72l-144 144-72 144 144-72 216-144v-72zm360 0h-72l-144 144-72 144 144-72 216-144v-72zm576 0h-72l-144 216-144 144 144-72 144-72v-144zm2952 0h-72l-72 72v144h72l72-72 72-144zm-8496 72-216 144-216 72v72l216-144 216-72zm5184 0h-72l-72 144-72 72 144-72 144-72v-72zm-1944 216h-72l72 72 144 72h144l-144-72-72-72zm5184 0h-144l72 72 72 72 72-72 72-72zm-7488 72-144 72-72 72h144l72-72zm360 0h-72v72h144v-72zm-2016 144v-72l-288 216-288 144h216l-144 72-72 144h216l216-144 216-144v-72l-144 72-144 72h-72l144-144zm1224-72h-72v72h72zm1080 0h-72v72l-72 144h144v-144l72-72zm-1656 216h-72l-72 144-72 72 72-72 144-72zm432 0h-72l-144 72-72 144 72 72 72-144zm720 0h-72l-72 72v216l72 72 72-144 72-216zm792 0h-72l-72 144-72 144h72l72 72v-144l72-144zm-576 72h-72v144l-72 72v72l72-72 72-144zm7128 72-144-72 72 144v72h144v-72l72-72zm-9072 72-288 144-216 72v72l72 144 72 72 144-72 216-144zm2088 0h-72v72h-72v216l72-72 72-144zm-1152 72h-72v72l-72 72h144l72-72v-72zm-504 72h-72l-72 72v72h72l72-72zm1800 0h-72l-72 72v144l72 72 72 144 72-144 72-216-72 144-144 72v-144zm6624 72-72-72 72 144 72 144h144l-72-72v-144zm-2592 0h-72l-144 144-72 144 144-72 144-72zm288 0h-72l-144 144-72 144 144-72 144-72zm-648 72h-72v72l-72 72 72-72h144v-72zm864 0h-72l-144 144-72 144 144-72 216-144v-72zm-5184 72h-72v72h72zm1008 0h-72l-72 144-72 144v72h72l72-144 72-144zm4536 0h-72v72l-72 72 72-72h144v-72zm1656 72-72-144v360h72l72 72v-216zm-8208 0h-72l-72 72-72 144v72h72l72-144 72-72zm2304 0h-72v144h72zm4032 72h-72v72h72zm-6192 144-72-72v72l-72 72v72h144zm288 0h-72l-72 144-144 144v72h72l144-144 72-144zm360 72-72-72-144 288-216 216h72l72-72 144-144zm504-72h-72v72h72zm-144 72h-72v72h72zm288 0h-72v72h72zm576 0h-72v144l-72 72 72-72 144-72v-72zm288 72h-72l-144 144-72 144 144-72 144-144zm216 0h-72l-144 216-144 144v144h216l-72-72v-72l72-216zm-1152 72h-72l-72 72v72h72l72-72zm216 0h-72l-72 144-72 72 72 72 72-144zm-2016 72h-72v72h144v-72z"/><path d="M9648 11808h-72l-72 144-72 72 72 72h72l-72 72v144h144l144 72v144l144-144 72-216v-72l-144-144-144-144zm0 144v72h-72v-72zm-1728-72h-72l-72 144-144 144v72h72l144-144 72-144zm216 0h-72l-144 288-144 216v72l144-72 72-72 72-216 72-144zm648 72h-72l-72 72v72h72l72-72zm72 144h-72l-72 72v72h72l72-72zm-1728 72h-72l-144 216-144 216v72h144l144-288 144-216zm1368 0h-72v216l72-72zm576 144-72-72-72 144-144 144v144l72 72h72v-72l-72-72 144-144zm-1728 0h-72l-144 216-216 216 72 72 144-144 72-144 72-72zm864 0h-72l-72 72-72 144v72h72l72-144 72-72zm432 72h-72v144h144v-144zm-1152 72h-72l-72 144-144 144v72h144l72-216 144-144zm864 72v72h-72v576h144v-648zm864 0h-72l-72 72v72h72l72-72zm288 0h-72v144l-72 72v144l72-144 144-144v-72zm-6192 72h-288l144 72h288l144-72zm6480 0h-72l-72 144-72 144v72h72l72-144zm-7272 72h-72v72h72zm5400 0h-72v216l72-72zm1296 72h-72v72l-72 72h144zm792 0h-72v72l-72 144h144zm-1872 72h-72v72l-72 72h144zm576 0h-72l-72 72-72 144v72l72 72 72-144zm-5328 72h-360l144 72h432l216-72zm-1080 72h-72v72h72zm288 0h-144l72 72h144l144-72zm6264 0h-72v144l-72 72v72h72l72-144 72-144zm-1008 72h-72v72h72zm-4248 72-432 72-432 72h864l72-72v-72zm4392 0h-72v72h72zm1872 0h-72v72h144v-72zm-288 72-72 144v72l-72 72v72h144v-144l72-144zm-7272 72h-72v72h72zm1080 72h-360l144 72h432l216-72zm288 144h-144l-288 72-216 72h432l144-72 216-72zm-936 144h-144l72 72h144l144-72zm6408 72-72-144v360l72-72zm-5544 0h-288l144 72h288l216-72zm360 288h-144l-432 72-432 72h792l144-72 216-72zm0 144h-72l-144 72-72 72h216l216-72v-72zm-720 72h-216l72 72h288l144-72zm360 0h-72v72h72zm-432 144h-72v72h72zm936 216h-360l-288 72-288 72h648l360-72 360-72zm-864 216h-288l144 72h288l144-72zm504 144h-72v72h144v-72zm-216 216h-144l72 72h144l144-72zm10296 72h-216l72 72h288l144-72zm-9216 72-216 72-216 72h432zm8784 0h-144l72 72h144l144-72zm-8208 144h-72v72h72zm144 0h-72v72h72zm-936 72h-504l216 72h576l288-72zm8640 72h-72v72h72zm288 0h-216v72h216l144 72v-144zm-288 216-432 72-360 72h864v-72zm-1008 72h-72v72h72zm-720 144h-504l504 72 504 72h-216l-144 72h-360l-360 72h864l72-72h144v-216zm-2880 288h-720l360 72h720l432-72zm864 0h-72v72h72zm936 0h-72v72h72zm144 0h-72v72h72zm-3456 72h-432l216 72h432l288-72zm6048 0-504 72-432 72h864l72-72zm-7200 72h-360l144 72h360l216-72zm6120 0h-72v72h72zm-6912 72h-216l72 72h216l144-72zm5544 0h-792l360 72h792l432-72zm1152 0h-72v72h72zm-2664 72h-360l144 72h360l216-72zm-1008 72h-288l144 72h288l144-72zm-720 72h-144l72 72h144l144-72zm-720 72h-144l72 72h144l144-72zm288 0h-72v72h72zm-936 72h-72v72h72zm6192 0h-288l144 72h288l144-72zm-720 72h-432l216 72h432l216-72zm-1296 72h-504l216 72h576l288-72zm-1296 72h-504l216 72h504l288-72zm-936 72h-288l144 72h288l144-72zm-720 72h-144l72 72h144l144-72zm3600 216h-216l72 72h288l144-72zm-720 72h-360l144 72h360l216-72z"/></svg>