<svg xmlns="http://www.w3.org/2000/svg" viewBox="0 0 154 140"><g fill="#F7A41D"><path d="M46 22 28 44l-9-14z"/><path d="M46 22 33 33l-5 11h-6v51h9l-11 5-8 17H0V22z" shape-rendering="crispEdges"/><path d="m31 95-19 22-8-11zm25-73 6 14-25 8z"/><path d="M56 22h55v22H37l19-12z" shape-rendering="crispEdges"/><path d="m116 95-19 22-7-13z"/><path d="m116 95-16 9-3 13H42V95z" shape-rendering="crispEdges"/><path d="M150 0 52 117 3 140l98-118zm-9 22-1 18-18 5z"/><path d="M153 22v95h-47l14-12 5-10h6V45h-9l10-9 9-14z" shape-rendering="crispEdges"/><path d="m125 95 5 15-24 7z"/></g></svg>